<svg xmlns="http://www.w3.org/2000/svg" width="899.97" height="596.877" viewBox="0 0 238.117 157.924"><defs><filter id="a" width="1.004" height="1.006" x="-.002" y="-.003" style="color-interpolation-filters:sRGB"><feGaussianBlur result="blur" stdDeviation=".2"/><feComposite in="SourceGraphic" in2="blur" operator="atop" result="composite1"/><feComposite in2="composite1" operator="in" result="composite2"/><feComposite in2="composite2" operator="in" result="composite3"/></filter></defs><path d="M445.492 63.819c.315.314.187 1.338-.208 1.665-.926.769-1.974-.516-1.19-1.46.33-.397 1.093-.51 1.398-.205zm-1.146.199c0 .06-.077.31-.17.552-.134.349-.036.423.46.353.809-.115 1.037-1.016.258-1.016-.301 0-.548.05-.548.11zm-3.92-.195c-.19.077-.419.067-.507-.02-.088-.089.069-.151.348-.14.308.013.37.076.16.16zm-33.768.225c-.282.213-.647.388-.81.388-.162 0-.526-.175-.809-.388-.473-.358-.41-.389.81-.389s1.283.03.81.389zm-9.04.013c.266.69.182 2.076-.17 2.834-.278.6-.497.712-1.389.71-1.213-.002-1.517-.156-1.956-.99-.259-.491-.221-.809.21-1.785.345-.78.69-1.186 1.004-1.183.295.002.365.078.182.198-.162.107-.545.689-.851 1.293l-.557 1.098 1.012-.136c.557-.075 1.28.007 1.605.182.586.313.592.299.501-1.162-.09-1.443.087-1.9.41-1.059zm-69.07.066a3.046 3.046 0 0 0-.09.595c0 .392-.963.28-1.323-.154-.28-.338-.21-.396.475-.396.442 0 .854-.09.915-.199.061-.109.071-.04.022.154zm-5.58-.333c.11.11.198.541.198.957 0 1.06-1.023 1.53-1.973.907-.499-.327-.668-.66-.656-1.294.016-.777.039-.8.256-.259.33.82 1.768.852 1.892.041.047-.304.174-.463.283-.352zm-16.603.113c-.09.146-.328.265-.529.265-.2 0-.439-.12-.529-.265-.093-.15.135-.265.53-.265.394 0 .622.114.528.265zm-7.991.086c.086.225-.083.714-.375 1.085-.508.646-.567.659-1.308.275-.588-.304-.77-.576-.746-1.122.02-.448.077-.546.152-.258.156.599 1.552.626 1.881.037.213-.379.256-.38.396-.017zm-47.121.496c-.247.247-.388.247-.635 0s-.177-.317.317-.317.565.07.318.317zm-16.994-.063c.214.135.308.327.21.425-.242.242-.996-.066-.996-.407 0-.336.274-.342.786-.018zm216.966.275c0 .145-.179.264-.397.264-.218 0-.397-.119-.397-.264 0-.146.179-.265.397-.265.218 0 .397.12.397.265zm-18.521-.029c0 .458-.89.576-1.294.17-.366-.365-.321-.406.444-.406.467 0 .85.106.85.236zm-3.307.029c-.09.145-.276.264-.413.264-.137 0-.249-.119-.249-.264 0-.146.186-.265.413-.265.227 0 .339.12.249.265zm-50.139 0c0 .145-.119.264-.264.264a.265.265 0 0 1-.265-.264.265.265 0 0 1 .53 0zm30.078.33c-.106.3-.026.475.225.496.733.063.874.1 1.05.277.098.097-.066.307-.365.467-.459.246-.611.186-.988-.389-.363-.554-.382-.738-.102-.996.273-.253.31-.223.18.145zm-59.711-.094c0 .308-.773.602-1.082.41-.467-.288-.233-.646.42-.646.364 0 .662.106.662.236zm-2.91.028a.265.265 0 0 1-.53 0 .265.265 0 0 1 .53 0zm-71.438 0c0 .146-.172.265-.381.265-.21 0-.455-.12-.545-.265-.09-.145.081-.264.381-.264s.545.119.545.264zm-25.803.259c.261.288.488.971.504 1.52.028.887-.046 1.008-.653 1.079-.792.092-1.184-.29-1.44-1.404-.182-.792-.182-.792.259-.197.957 1.294 1.982.389 1.056-.933-.51-.73-.359-.765.274-.065zm170.25.076c.704.356 1.708 1.864 1.552 2.33-.053.16-.39-.159-.75-.707-.869-1.324-1.804-1.622-3.101-.988-.749.366-.993.646-.993 1.14 0 .696-.002.695 3.374 1.181 1.385.2 1.576.571.7 1.365-.798.721-2.69.644-3.53-.143-.785-.739-1.277-1.883-1.16-2.702.06-.427.454-.805 1.267-1.216 1.349-.68 1.737-.718 2.642-.26zm-18.191.11c-.191.077-.42.067-.507-.02-.088-.088.068-.15.347-.14.308.013.37.076.16.16zm-46.528.26c.3.301.194 1.332-.168 1.633-.53.44-1.494.058-1.675-.662-.089-.353-.087-.716.003-.806.09-.09.164.034.164.277 0 .317.231.44.825.44.694 0 .802-.083.686-.528-.148-.565-.116-.634.165-.353zm-114.822.221c-.17.444-.518.52-.74.16-.08-.13.041-.309.27-.397.596-.228.64-.206.47.237zm228.24.146c.287.196.131.225-.568.104-1.025-.176-1.802.106-2.805 1.019-.327.298-.658.477-.736.4-.078-.08.282-.516.802-.972.99-.87 2.476-1.117 3.307-.55zm-68.213-.097c-.191.076-.42.067-.507-.021-.088-.088.068-.15.347-.14.308.014.37.076.16.16zm-10.5.083c.09.146-.03.265-.265.265-.236 0-.355-.119-.265-.265.09-.145.209-.264.265-.264.055 0 .174.119.264.264zm-109.141 0c0 .146-.179.265-.397.265-.219 0-.397-.119-.397-.265 0-.145.178-.264.397-.264.218 0 .397.119.397.264zm51.329.326c0 .601-.785 1.322-1.247 1.145-.211-.081-.434-.148-.495-.148-.06 0-.11-.178-.11-.396 0-.238.244-.397.608-.397.335 0 .752-.143.926-.318.247-.247.318-.222.318.114zm-89.783.09c.088.227.032.54-.123.696-.321.321-1.11.101-1.11-.31 0-.15.244-.272.544-.272.3 0 .471-.12.381-.265-.09-.145-.093-.265-.007-.265s.228.187.315.415zm198.656.118c-.091.148-.277.2-.412.117-.367-.227-.299-.386.166-.386.227 0 .337.121.246.269zm-172.902-.004c0 .145-.179.265-.397.265-.219 0-.397-.12-.397-.265 0-.146.178-.265.397-.265.218 0 .397.12.397.265zm-12.171 0c0 .145-.12.265-.265.265a.265.265 0 0 1-.264-.265c0-.146.119-.265.264-.265.146 0 .265.12.265.265zm183.038.317c.49.49.377 1.741-.211 2.329-.291.29-.634.529-.762.529-.733 0-1.366-2.127-.826-2.778.396-.477 1.36-.52 1.8-.08zm-1.486.807c-.075.654 0 .728.728.728.824 0 .986-.296.645-1.183-.276-.72-1.275-.389-1.373.455zm-34.113-.838c.603.351.592 1.367-.021 1.922-.604.546-1.086.553-1.839.026-.817-.573-.734-1.094.272-1.708.987-.601.972-.6 1.588-.24zm-1.6.56c-.531.531-.363.741.592.741.93 0 1.366-.321 1.074-.793-.226-.366-1.282-.333-1.667.053zm-10.108-.581c0 .145-.172.264-.381.264-.21 0-.455-.119-.545-.264-.09-.146.082-.265.381-.265.3 0 .545.119.545.265zm-32.28 0c0 .145-.237.264-.528.264-.291 0-.53-.119-.53-.264 0-.146.239-.265.53-.265.29 0 .529.119.529.265zm-13.923.136c.534.534.562 2.07.046 2.499-.59.49-1.45.066-1.936-.953-.324-.68-.365-1.033-.156-1.366.38-.608 1.518-.707 2.046-.18zm-1.87.299c-.204.53.564 1.152 1.425 1.152.667 0 .758-.289.337-1.076-.338-.63-1.53-.682-1.762-.076zm91.465-.17c0 .145-.246.264-.545.264-.3 0-.471-.12-.381-.265.09-.145.335-.264.544-.264.21 0 .382.119.382.264zM429 67.08c.281.181.04.24-.831.204-1.366-.056-2.15.398-2.026 1.174.043.273.168.492.277.486.11-.006.726-.01 1.37-.01.893 0 1.2-.11 1.292-.463.079-.303.132-.225.152.223.071 1.599-2.191 2.109-3.22.726-.718-.967-.45-1.93.642-2.312 1.022-.356 1.818-.365 2.344-.028zm-22.316.145c.086.225.097.468.025.54-.072.072-.195-.111-.273-.408-.165-.63.019-.728.248-.132zm-1.18.415c-.115.787-.079.831.574.707.868-.166.952.432.122.876-.478.256-.635.224-.937-.19-.214-.291-.297-.769-.201-1.157.248-1.01.582-1.187.442-.236zm-7.146-.642c-.191.076-.42.067-.507-.021-.088-.088.068-.15.347-.139.308.013.37.075.16.16zm-57.861.084c-.09.145-.276.264-.413.264-.137 0-.249-.119-.249-.264 0-.146.186-.265.413-.265.227 0 .339.12.249.265zm-78.493.158c.813.569.705 1.789-.17 1.913-.335.047-.781-.057-.991-.231-.477-.395-.522-1.165-.052-.871.182.113.548.24.813.281.716.112.452-.766-.352-1.174-.378-.19-.487-.335-.255-.337.222-.002.675.186 1.007.419zm189.22.107c0 .145-.178.264-.396.264-.218 0-.397-.119-.397-.264 0-.146.179-.265.397-.265.218 0 .397.12.397.265zm-81.016.262c-.097.817-.871 1.01-1.246.309-.242-.451-.206-.5.274-.375.318.083.656-.012.8-.225.183-.27.229-.192.172.29zm98.48.37c0 .663-2.587 1.33-3.624.936-.882-.336-.753-.648.413-.997 1.453-.436 3.21-.402 3.21.062zm-100.413.166c-.091.148-.277.2-.412.116-.367-.226-.299-.385.166-.385.227 0 .338.12.246.269zm-98.62.202c.327.052.595.206.595.341 0 .34-.987.31-1.202-.036-.226-.366-.117-.42.606-.305zm16.558.234c.097.097.176.518.176.935 0 .944-.72 1.297-1.229.601-.475-.65-.458-1.066.027-.663.504.418 1.02.086.853-.55-.14-.535-.105-.6.173-.323zm157.076 1.182c.333.235.323.256-.06.133-.453-.145-1.265.439-1.265.91 0 .306.072.305.9-.01.923-.351 1.137.122.302.669-.887.581-1.526.32-1.418-.581.106-.88.98-1.517 1.54-1.12zm-2.863.146c-.19.076-.419.067-.507-.021-.088-.088.069-.15.348-.14.308.013.37.076.16.16zm-50.605-.001c.011.172.288.359.616.416.538.094.549.125.114.318-.56.25-1.101-.17-.892-.693.09-.225.148-.24.162-.041zm-93.96.137c.446.446.396 1.42-.098 1.913-.509.509-1.794.544-2.195.06-.395-.475-.116-.702.87-.707 1.18-.006 1.672-.367 1.229-.901-.498-.6-1.507-.514-1.987.17-.236.338-.411.435-.411.228 0-.878 1.914-1.44 2.592-.763zm114.353.477c0 .145-.119.264-.264.264a.265.265 0 0 1-.265-.264.265.265 0 0 1 .53 0zm-104.822.147c-.094.452-.553.566-.685.17-.046-.139.109-.326.344-.416.294-.113.4-.037.341.246zm149.12.448c.478.73.41 1.327-.233 2.038-.95 1.048-2.26.458-2.26-1.018 0-.648.976-1.615 1.63-1.615.261 0 .65.268.864.595zm-1.806.506c-.534.763-.374.934.752.803.673-.079.942-.24.942-.566 0-.975-1.072-1.125-1.694-.237zm-74.721-.92c-.191.076-.42.066-.507-.021-.088-.088.068-.15.347-.14.308.013.37.076.16.16zm-123.419.17c-.121.365-.691.416-.787.07-.036-.13.15-.27.412-.309.27-.04.433.065.375.24zm63.236.265c-.127.38-.986.579-.986.228 0-.14.245-.318.545-.396.346-.09.506-.03.44.168zm42.274.177c-.09.146-.395.265-.677.265-.283 0-.514-.12-.514-.265 0-.145.305-.264.677-.264.384 0 .607.114.514.264zm-20.582.101c-.12.367-1.246.56-1.246.213 0-.138.302-.31.672-.38.424-.081.636-.02.574.167zm32.57.656c-.068.457-.101.83-.076.83.539 0 1.72-.692 1.735-1.017.011-.24.075-.307.14-.147.218.526-.384 1.645-.986 1.836-.419.133-.692.048-.94-.292-.43-.588-.458-1.605-.052-1.856.208-.129.263.07.178.646zm-89.908-.484c0 .141-.179.257-.397.257-.218 0-.397-.047-.397-.104 0-.058.179-.173.397-.257.218-.083.397-.037.397.104zm156.17.294c-.595.6-.402 1.096.352.907.561-.14.667-.087.592.302-.058.303-.327.473-.749.473-.543 0-.672-.144-.738-.826-.059-.6.05-.875.397-1.008.383-.145.412-.115.146.152zm29.57.304c-.363.183-.698.533-.744.776-.073.374.039.407.721.211 1.034-.296 1.3.102.444.663-1.315.862-2.444-.679-1.158-1.58.323-.226.77-.41.992-.408.231.002.122.147-.255.338zm-146.332.037c.542.654.23 2.285-.547 2.863-.569.423-.798.461-1.264.212-.742-.397-.514-.72.779-1.107.904-.27 1.047-.417 1.047-1.074 0-1.482-1.511-1.269-1.955.276-.13.458-.337.833-.458.833-.12 0-.095-.327.057-.727.573-1.508 1.658-2.099 2.34-1.276zm-40.417.067c-.19.076-.419.067-.507-.021-.088-.088.069-.15.347-.139.309.013.371.075.16.16zm153.674.48c-.182.219-.421.397-.534.397-.112 0-.272-.178-.356-.396-.111-.29.033-.397.533-.397.58 0 .635.061.357.397zm-87.445-.132c-.09.146-.276.265-.413.265-.137 0-.249-.12-.249-.265 0-.145.186-.264.413-.264.227 0 .339.119.249.264zm-61.714-.09c-.182.074-.48.074-.662 0-.182-.073-.033-.133.331-.133s.513.06.33.134zm82.188.32c.02.238.256.318.693.235.821-.157.913.478.105.734-.678.216-1.125-.177-.955-.84.07-.27.14-.328.157-.13zm-22.315.317c.096.155.112.345.035.421-.208.208-1.237-.172-1.237-.456 0-.341.987-.312 1.202.035zm-48.17.24c.214.346-.395.64-.698.337-.17-.17-.118-.314.147-.416.224-.085.472-.05.551.08zm-55.955.007c0 .146-.238.265-.529.265-.291 0-.53-.12-.53-.265 0-.145.239-.264.53-.264.291 0 .53.119.53.264zm209.603.318c-.247.247-.388.247-.635 0s-.176-.318.318-.318.564.07.317.318zm-54.427-.049c-.092.148-.277.2-.413.117-.367-.227-.298-.386.166-.386.227 0 .338.121.247.27zm-70.774.053c0 .114-.238.207-.529.207-.29 0-.529-.093-.529-.207 0-.115.238-.208.53-.208.29 0 .528.093.528.208zm78.25.132c-.504.077-.727.267-.727.622 0 .59.014.594.88.265.56-.213.631-.18.52.246-.25.956-1.501.93-1.808-.036-.224-.706.327-1.294 1.168-1.247l.695.04zm38.28.278c-.387.265-.682 1.12-.387 1.12.132 0 .545-.116.918-.258.793-.301.885-.01.195.614-.61.552-1.337.564-1.544.024-.203-.53.326-1.704.765-1.699.225.003.243.07.053.199zm-27.894.062c0 .146-.245.265-.545.265-.3 0-.471-.12-.381-.265.09-.145.335-.265.544-.265.21 0 .382.12.382.265zm13.987.463c.029.483.192.595.862.595.704 0 .777.059.497.397-.677.815-1.725.137-1.512-.977l.117-.61zm-62.538-.198c-.09.145-.454.264-.81.264-.355 0-.646-.119-.646-.264 0-.146.365-.265.81-.265.472 0 .741.11.646.265zm-26.856 0c0 .145-.119.264-.264.264a.265.265 0 0 1-.265-.264.265.265 0 0 1 .53 0zm61.882.33c.019.277.244.463.56.463.294 0 .53.177.53.397 0 .49-.282.504-.905.049-.285-.208-.424-.554-.346-.86.11-.433.135-.44.161-.049zm59.915.944c.24.264.504.889.589 1.389.154.906.153.905-.38-.216-.664-1.393-1.334-1.464-2.268-.24-.707.927-.857 1.618-.41 1.894.145.09.264.037.264-.117 0-.351 1.331-.365 2.232-.022.972.37.84.695-.414 1.013-1.272.323-2.18.066-2.61-.74-.392-.732-.12-1.536.873-2.582.925-.974 1.494-1.075 2.124-.38zm-199.584-.216c.342.221.335.257-.05.26-.247.002-.522-.115-.611-.26-.207-.335.143-.335.661 0zm-11.733.53c-.032.721-.153.925-.548.925-.279 0-.557-.149-.617-.33-.064-.192.113-.331.422-.331.34 0 .579-.217.658-.596.07-.327.107-.178.085.331zm182.195-.32c.403.05.664.202.58.337-.208.336-1.108.312-1.323-.035-.228-.37-.132-.409.743-.301zm-71.723.235c-.19.077-.419.067-.507-.02-.088-.089.068-.151.347-.14.309.013.371.076.16.16zm-12.75.084c0 .146-.119.265-.264.265a.265.265 0 0 1-.265-.265.265.265 0 0 1 .53 0zm43.458.175c-.182.074-.48.074-.661 0-.182-.073-.033-.133.33-.133.364 0 .513.06.331.133zm2.368.553c.124.453.357.595.981.595.551 0 .819.13.819.397 0 .263-.264.397-.785.397-.842 0-1.441-.724-1.272-1.536.073-.351.13-.32.257.147zm72.443.066c0 .145-.178.264-.397.264-.218 0-.396-.119-.396-.264 0-.146.178-.265.396-.265.219 0 .397.12.397.265zm-14.816 0c0 .145-.179.264-.397.264-.219 0-.397-.119-.397-.264 0-.146.178-.265.397-.265.218 0 .397.12.397.265zm-157.579.15c.229.23.434.616.456.86.023.245.06.623.083.842.102.952-1.074 1.428-1.69.685-.171-.206-.36-.83-.421-1.39-.092-.843-.078-.88.08-.221.147.61.359.813.917.877.853.098.985-.523.315-1.48-.478-.683-.34-.773.26-.172zm95.137.114a.265.265 0 0 1-.53 0 .265.265 0 0 1 .53 0zm28.692.405c.416.315.434.389.094.389a.663.663 0 0 1-.571-.397c-.185-.48-.17-.48.477.008zm-75.078-.138c1.662.669.987 2.908-.876 2.908-.705 0-.958-.154-1.282-.78-.523-1.01-.516-2.03.015-2.234.568-.219 1.446-.175 2.143.106zm-2.005.361c-.608.732-.052 1.257 1.242 1.171 1.479-.097 1.726-.615.54-1.13-1.118-.485-1.408-.492-1.782-.04zm-14.127-.262c-.12.367-1.247.56-1.247.213 0-.14.303-.31.672-.381.424-.081.636-.02.575.168zm-27.54.018c.08.212.07.51-.025.662-.245.396-.852.342-1.018-.09-.101-.264.014-.326.413-.222.436.114.518.05.386-.294-.093-.242-.11-.44-.037-.44.073 0 .199.173.28.384zm114.453.198c-.247.247-.389.247-.635 0-.247-.247-.177-.317.317-.317s.564.07.318.317zm-11.98-.17c.011.155-.158.512-.376.794-.393.509-.401.509-.794 0-.219-.282-.388-.64-.376-.793.011-.154.08-.132.154.05s.352.331.619.331c.266 0 .545-.149.618-.33.074-.183.143-.205.154-.051zm-126.45.382c0 .145-.112.265-.25.265-.136 0-.322-.12-.412-.265-.09-.146.022-.265.25-.265.226 0 .412.12.412.265zm136.657.265c-.09.145-.276.264-.413.264-.137 0-.249-.119-.249-.264 0-.146.186-.265.413-.265.227 0 .339.119.249.265zm-129.154.237c.948.625 1.753 1.825 1.755 2.616.004 1.47-1.78 2.874-3.291 2.59-.926-.173-1.999-1.024-1.999-1.584 0-.258.608-.385 2.246-.471 1.235-.065 2.316-.19 2.404-.277.31-.31-.766-2.084-1.496-2.46-1.112-.576-2.006-.126-2.651 1.332-.605 1.368-.767 1.473-.767.499 0-.82 1.79-2.748 2.548-2.745.272 0 .835.226 1.25.5zm170.164.027c.09.146-.022.265-.249.265s-.412-.12-.412-.265c0-.145.112-.264.249-.264s.322.119.412.264zm-91.893-.084c-.19.077-.419.067-.507-.02-.088-.089.068-.151.347-.14.309.013.371.076.16.16zm-105.703.479c-.05.837-.974 1.36-.974.55 0-.228.17-.416.378-.416s.437-.208.51-.463c.074-.254.112-.107.086.329zm-1.14-.45c.072.116-.103.227-.387.249-.284.021-.447-.073-.363-.21.188-.303.574-.323.75-.039zm171.467.882-.428.828.829-.122c.651-.095.812-.032.75.297-.118.62-1.458.707-1.594.104-.103-.457.461-1.934.738-1.934.073 0-.06.372-.295.827zm-5.804-.562c.09.145.045.264-.1.264-.146 0-.339-.119-.429-.264-.09-.146-.044-.265.101-.265.146 0 .338.12.428.265zm-52.493.068c.449.349.828 2.048.457 2.048-.12 0-.219-.353-.219-.784 0-.524-.183-.882-.55-1.079-.844-.451-1.302-.124-1.302.929 0 .842.072.935.728.938.993.006 1.61.41 1.22.8-.531.531-1.782.186-2.154-.596-.506-1.06-.096-2.437.75-2.521.356-.035.837.084 1.07.265zm-50.583.23c.024.8-.58 1.42-1.166 1.195-.257-.099-.387-.466-.364-1.022.025-.621.068-.699.15-.273.063.328.196.594.295.591.323-.007.759-.384.913-.79.091-.238.16-.119.172.3zm-42.917.06c-.124.373-1.038.403-1.159.039-.048-.146.216-.282.586-.304.403-.023.634.083.573.265zm-31.78-.156c.987.66 1.172 2.487.311 3.09-.732.513-.86.513-1.377-.004-.648-.648-.497-.907.528-.907.865 0 .936-.058.86-.701-.167-1.393-1.506-1.503-1.61-.132-.042.565-.458.825-.458.286 0-.633.863-1.826 1.322-1.826.073 0 .264.087.424.194zm226.721.591c.09.146-.022.265-.249.265s-.412-.119-.412-.265c0-.145.112-.264.249-.264s.322.119.412.264zm-65.22-.027c0 .179.209.29.463.247.255-.043.523.039.596.182.073.143-.12.296-.43.34-.527.075-1.093-.63-.767-.956.076-.076.138.008.138.187zm-29.633.236c0 .163.416.375.924.47 1.013.19 1.01.644-.004.644-.614 0-1.405-.926-1.074-1.257.085-.085.154-.02.154.143zm68.263.585c0 .146-.179.265-.397.265-.219 0-.397-.12-.397-.265 0-.145.178-.264.397-.264.218 0 .397.119.397.264zm20.442.183c.256.067.398.232.315.366-.241.39-.825.283-.825-.152 0-.218.01-.383.022-.366.012.017.232.085.488.152zm-25.236.143c.017.254.326.532.693.624.773.194.887.638.164.638-.646 0-1.167-.641-1.01-1.244.111-.432.126-.434.153-.018zm-82.717-.116c.4.05.727.201.727.337 0 .342-1.251.312-1.466-.035-.228-.37-.132-.409.739-.302zm-48.884.052c.093.15-.013.194-.249.104-.458-.176-.542-.366-.162-.366.137 0 .322.118.411.262zm115.013.184c-.191.076-.42.067-.507-.021-.088-.088.068-.15.347-.14.308.013.371.076.16.16zm-97.477-.004c.302.121 1.12 1.43 1.12 1.794 0 .08-.12.145-.266.145-.145 0-.264-.17-.264-.378 0-.207-.316-.626-.703-.93-.845-.664-1.567-.523-2.405.471-.453.537-.594.6-.595.261-.003-.989 1.935-1.838 3.113-1.363zm-74.031-.03c.005.154-.166.512-.38.794-.214.283-.392.388-.397.233-.005-.154.166-.51.38-.793.214-.283.392-.388.397-.234zm158.494.382c0 .145-.179.264-.397.264-.218 0-.397-.119-.397-.264 0-.146.179-.265.397-.265.218 0 .397.12.397.265zm-46.302.009c0 .379-.56.594-.835.32-.169-.169-.069-.308.288-.402.3-.078.547-.042.547.082zm69.98.251c.099.16-.135.202-.607.107-.622-.124-.876-.016-1.336.569-.313.397-.569.951-.569 1.231 0 .434.163.497 1.103.427.986-.072 1.14-.178 1.458-1.007l.355-.926-.145 1.169c-.16 1.29-.686 1.852-1.746 1.865-1.417.017-1.881-1.84-.758-3.036.629-.67 1.934-.901 2.245-.399zm-96.439.136c-.34.41-1.23.517-1.962.237-.843-.324-.384-.634.936-.634 1.175 0 1.312.053 1.026.397zm-28.969.088c-.074.194-.135.402-.135.463 0 .334-1.078.04-1.287-.352-.214-.4-.123-.463.655-.463.643 0 .864.101.767.352zm-6.029-.133c-.121.365-.691.416-.787.07-.036-.131.15-.27.412-.309.27-.04.433.065.375.24zm45.317.178c0 .146-.119.265-.264.265a.265.265 0 0 1-.265-.265.265.265 0 0 1 .53 0zm-43.392 0c0 .146-.23.265-.513.265-.283 0-.587-.12-.677-.265-.093-.15.13-.264.513-.264.373 0 .677.119.677.264zm167.217.28c0 .154-.119.207-.264.117-.146-.09-.265-.216-.265-.28 0-.064.119-.117.265-.117.145 0 .264.126.264.28zm-14.552.227c0 .164-.302.436-.671.604-.553.252-.75.228-1.115-.138-.416-.415-.4-.444.253-.444.383 0 .884-.072 1.115-.16.23-.089.418-.027.418.138zm-144.413-.062c-.19.077-.419.067-.507-.02-.088-.088.068-.15.347-.14.309.013.371.076.16.16zm-54.024.075c0 .418-.92.788-1.329.535-.288-.178-.206-.294.363-.51.902-.344.966-.345.966-.025zm112.977.274c0 .145-.246.264-.545.264-.3 0-.471-.119-.381-.264.09-.146.335-.265.544-.265.21 0 .382.12.382.265zm-94.721 0a.265.265 0 0 1-.53 0 .265.265 0 0 1 .53 0zm-36.737.488c.728.65.808.856.656 1.668-.25 1.329-1.102 2.165-1.983 1.945-.737-.184-1.624-.856-1.624-1.232 0-.123.513-.223 1.14-.223 1.542 0 2.15-.458 1.807-1.361-.143-.376-.46-.76-.704-.854-.734-.282-1.824.418-2.01 1.291l-.17.791-.031-.764c-.018-.42-.24-.923-.495-1.116-.44-.335-.44-.352 0-.36.255-.005.463.125.463.288 0 .212.098.216.34.016.186-.155.664-.405 1.06-.556.625-.238.832-.175 1.551.467zm200.573.188c-.775.543-.746.911.073.911.441 0 .662-.147.662-.44 0-.243.07-.371.156-.285.26.26-.148 1.195-.597 1.367-.48.184-1.147-.274-1.147-.787 0-.428.724-1.178 1.136-1.178.168 0 .04.186-.283.412zm-115.616.049c.837.052 1.521.2 1.521.327 0 .54-1.439 1.357-2.105 1.196-.952-.231-2.145-1.802-1.268-1.669.182.028 1.015.093 1.852.146zm17.793.598c.09.145-.029.264-.264.264-.236 0-.355-.119-.265-.264.09-.146.21-.265.265-.265.055 0 .174.12.264.265zm-90.199.038c.065.104.007.258-.128.341-.283.175-1.086-.085-1.086-.35 0-.24 1.065-.232 1.214.01zm190.344.332c0 .347.137.416.56.281.406-.128.528-.078.442.18-.198.596-.942.567-1.136-.042-.098-.31-.108-.635-.022-.721.086-.086.156.05.156.302zm-22.177-.048c-.14.141-.477.21-.747.152-.364-.077-.298-.143.256-.256.483-.098.657-.062.491.104zm-22.937.211c-.091.148-.277.2-.412.117-.367-.227-.299-.386.166-.386.227 0 .337.121.246.27zm30.347.177c-.19.076-.42.067-.507-.021-.088-.088.068-.15.347-.14.308.014.371.076.16.16zm-23.618-.007c.012.18.265.247.616.163.57-.136.575-.12.134.345-.34.358-.539.408-.757.19-.163-.163-.233-.456-.155-.65.085-.213.15-.232.162-.048zm-26.522.408c.3.66.026 1.769-.524 2.118-.466.297-1.45.254-1.652-.072-.232-.376-.067-.509.839-.67 1.12-.199 1.515-.67 1.073-1.275-.465-.635-1.323-.365-1.738.547-.173.38-.392.614-.486.52-.309-.31.89-1.616 1.558-1.697.47-.057.73.092.93.53zm-102.773-.296c.573.333.626 1.895.081 2.348-.458.38-1.519.271-1.664-.171-.062-.187.287-.39.853-.496.779-.146.942-.283.877-.736-.044-.306-.378-.706-.742-.89-.364-.183-.483-.331-.264-.329.218.002.605.125.86.274zm186.069.243c-.09.146-.335.265-.545.265-.21 0-.381-.12-.381-.265 0-.145.245-.264.544-.264.3 0 .472.119.382.264zm-39.159 0c-.09.146-.454.265-.809.265-.355 0-.646-.12-.646-.265 0-.145.364-.264.81-.264.472 0 .74.11.645.264zm30.803.33c.016.337.244.464.837.464.927 0 .96.608.041.744-.594.087-1.258-.787-1.027-1.354.07-.174.138-.108.15.147zm-135.18-.065c0 .145-.239.264-.53.264-.291 0-.53-.119-.53-.264 0-.146.239-.265.53-.265.291 0 .53.12.53.265zm147.24.529c.09.145-.03.264-.265.264-.235 0-.354-.119-.264-.264.09-.146.209-.265.264-.265.056 0 .175.12.265.265zm-96.04.175c.771.77.346 2.988-.677 3.535-.669.358-1.925.114-1.772-.344.059-.175.513-.439 1.011-.586 1.335-.394 1.566-.612 1.566-1.481 0-.882-.459-1.176-1.448-.928-.497.125-.747.465-1.04 1.418l-.385 1.254-.019-.947c-.029-1.51 1.862-2.824 2.765-1.921zm-30.299-.175c0 .145-.119.264-.264.264a.265.265 0 0 1-.265-.264.265.265 0 0 1 .53 0zm-65.108.154c-.013.308-.075.371-.16.16-.076-.191-.067-.42.021-.507.088-.088.15.068.139.347zm120.935.075c0 .423-1.307.686-1.66.334-.22-.222-.198-.3.086-.302.211-.002.652-.076.98-.163.352-.095.594-.042.594.13zm-45.135-.002c.077.124-.154.17-.513.101-.36-.069-.654-.17-.654-.226 0-.205 1.032-.095 1.167.125zm-13.007.06c.255.147.463.4.463.561 0 .171-.192.126-.463-.11-.254-.223-.628-.345-.83-.272-.225.08-.296.016-.183-.167.224-.362.41-.365 1.013-.013zm-30.79.34c1.281 1.364-.358 3.003-1.722 1.722-.77-.724-.818-1.147-.086-.755.298.16.906.253 1.35.208l.808-.082-.56-.71c-.31-.39-.827-.761-1.152-.824-.533-.103-.524-.118.092-.15.41-.022.916.214 1.27.59zm155.475-.098c-.09.146-.275.265-.412.265-.137 0-.25-.12-.25-.265 0-.146.186-.265.413-.265.227 0 .339.12.25.265zm-89.826 0c0 .146-.179.265-.397.265-.218 0-.397-.12-.397-.265 0-.146.179-.265.397-.265.218 0 .397.12.397.265zm-7.408.008c0 .141-.179.256-.397.256-.218 0-.397-.046-.397-.104 0-.057.179-.172.397-.256.218-.084.397-.037.397.104zm-32.809.256c0 .146-.119.265-.264.265a.265.265 0 0 1-.265-.265.265.265 0 0 1 .53 0zm-34.925.148c0 .227-.12.338-.269.247-.147-.092-.2-.278-.116-.413.227-.367.385-.299.385.166zm113.507.381c0 .146-.112.265-.25.265-.136 0-.322-.119-.412-.265-.09-.145.022-.264.25-.264.226 0 .412.119.412.264zm-7.343-.089c-.181.073-.48.073-.661 0-.182-.073-.033-.133.33-.133.365 0 .513.06.331.133zm-53.313.016c.91.113 1.127.443.46.7-.534.204-1.792-.292-1.585-.626.09-.146.187-.246.214-.223.028.024.438.09.91.15zm-27.171.52c-.154.317-.28.812-.28 1.099 0 .402.13.488.565.374.31-.081.622-.368.692-.637.07-.269.241-.489.38-.489.281 0 .03 1.011-.378 1.522-.371.463-1.17.412-1.363-.088-.266-.694-.183-1.304.251-1.846.398-.496.402-.494.133.064zm-26.85-.055c.447.338.454.386.061.394-.246.005-.525-.119-.621-.274-.289-.466.015-.532.559-.12zm-49.894-.127c0 .146-.126.265-.28.265-.155 0-.207-.12-.117-.265.09-.145.216-.264.28-.264.064 0 .117.119.117.264zm-4.498 0c0 .146-.112.265-.25.265-.136 0-.322-.12-.412-.265-.09-.145.023-.264.25-.264.226 0 .412.119.412.264zm60.48.36c.32.836.002 1.624-.655 1.624-.823 0-1.326-.753-.927-1.389.376-.6 1.384-.75 1.581-.236zm-1.428.503c-.066.34.088.46.592.46.647 0 .911-.475.495-.891-.318-.319-.994-.05-1.087.431zm37.257-.203c-.467.563-1.298.749-1.733.388-.643-.534-.44-.715.831-.74 1.024-.021 1.166.034.902.352zm-86.731-.078c-.247.247-.388.247-.635 0s-.177-.317.317-.317.565.07.318.317zm96.079.124c.097.097.176.516.176.931 0 .982-.99 1.51-1.984 1.057-1.027-.468-.783-.842.548-.842 1.01 0 1.196-.077 1.123-.463-.102-.538-1.45-.79-1.889-.351-.156.157-.41.281-.563.277-.152-.005-.046-.184.236-.397.523-.396 2.033-.532 2.353-.212zm-89.01.286c.016.426-.129.596-.508.596-.29 0-.529-.12-.529-.265 0-.146.169-.265.375-.265a.587.587 0 0 0 .508-.33c.074-.182.143-.063.155.264zm-1.857.253c-.193.32-.407.526-.477.457-.07-.07.088-.333.35-.584.456-.436.462-.43.127.127zm25.162.078c0 .146-.245.265-.545.265-.3 0-.471-.12-.381-.265.09-.146.335-.265.545-.265.21 0 .381.12.381.265zm-41.407 0c.09.146-.022.265-.25.265-.226 0-.412-.12-.412-.265 0-.146.112-.265.25-.265.136 0 .322.12.412.265zm134.31.463c.335.429.323.434-.167.075a43.427 43.427 0 0 0-.639-.463c-.06-.041.014-.075.166-.075s.44.209.64.463zm-15.116-.198c0 .145-.238.264-.529.264-.29 0-.529-.119-.529-.264 0-.146.238-.265.53-.265.29 0 .528.12.528.265zm94.192.456c0 .299.149.527.33.507.483-.054.565.477.09.576-.41.086-.902-1.145-.584-1.463.09-.09.164.08.164.38zm-9.672-.216c.081.132-.069.183-.334.114-.583-.153-1.225.543-1.012 1.098.09.233.482.4.94.4.887 0 1.295.39.662.634-.981.376-1.96-.205-1.96-1.163 0-.908 1.3-1.735 1.704-1.083zm-164.027.024c.093.15-.13.265-.513.265-.373 0-.677-.119-.677-.265 0-.145.23-.264.513-.264.283 0 .587.119.677.264zm-27.384 0c0 .146-.179.265-.397.265-.218 0-.397-.119-.397-.265 0-.145.179-.264.397-.264.218 0 .397.119.397.264zm-10.005-.083c-.19.076-.419.067-.507-.021-.088-.088.069-.15.347-.14.309.014.371.076.16.16zm129.332.348c0 .146-.179.265-.397.265-.218 0-.397-.12-.397-.265 0-.145.179-.265.397-.265.218 0 .397.12.397.265zm-54.504-.142c0 .068-.226.244-.502.392-.372.199-.585.167-.826-.123-.275-.331-.198-.392.502-.392.454 0 .826.056.826.123zm-5.557.142c0 .146-.238.265-.529.265-.29 0-.529-.12-.529-.265 0-.145.238-.265.53-.265.29 0 .528.12.528.265zm62.971.78c0 .423-.916.794-1.33.539-.455-.282-.343-.398.603-.625.419-.1.727-.064.727.085zm-41.54.014c0 .145-.185.264-.412.264-.227 0-.339-.119-.249-.264.09-.146.276-.265.413-.265.137 0 .249.12.249.265zm-61.518.269c-.091.148-.277.2-.412.116-.367-.226-.299-.385.166-.385.227 0 .338.12.246.269zm-24.356.24c.875.967.062 2.107-1.265 1.774-1.001-.252-.868-.696.208-.696.501 0 .975-.103 1.053-.229.154-.25-.533-.936-1.17-1.17-.274-.101-.225-.153.158-.167.305-.012.762.208 1.016.488zm156.65.02c-.09.146-.394.265-.676.265-.283 0-.514-.12-.514-.265 0-.146.305-.265.677-.265.384 0 .607.115.514.265zm-137.93-.084c-.19.077-.419.067-.507-.02-.088-.089.068-.151.347-.14.309.013.371.076.16.16zm-3.175.265c-.19.076-.419.067-.507-.021-.088-.088.068-.15.347-.14.309.014.371.076.16.16zm43.871.364c0 .154-.119.206-.264.117-.146-.09-.265-.217-.265-.28 0-.065.12-.117.265-.117.145 0 .264.126.264.28zm158.486.187c0 .28-.569.856-.847.856-.41 0-.205-.515.318-.794.29-.156.529-.184.529-.062zm-66.532.08c.285.46-.04.558-.402.12-.21-.251-.23-.403-.054-.403.155 0 .36.127.456.282zm-1.924.267c-.094.358-.214.478-.28.28-.063-.19.01-.473.164-.627.196-.196.23-.093.116.347zm-3.726-.37c-.19.077-.419.068-.507-.02-.088-.088.068-.15.347-.139.309.013.371.075.16.16zm-100.723.085c-.09.145-.335.264-.545.264-.21 0-.381-.119-.381-.264 0-.146.245-.265.544-.265.3 0 .472.12.382.265zm128.918.323c.327.158.595.39.595.517s-.313.025-.695-.226c-.674-.441-.712-.436-1.191.156-.717.885-.62 1.048.529.894 1.247-.167 1.711.33.676.724-.549.209-.858.177-1.339-.138-.765-.502-.794-1.024-.097-1.721.596-.596.688-.608 1.522-.206zm-10.385-.059c.09.146-.089.265-.397.265-.308 0-.487-.12-.397-.265.09-.145.269-.264.397-.264s.307.119.397.264zm-91.414 0c0 .146-.178.265-.396.265-.219 0-.397-.12-.397-.265 0-.145.178-.264.397-.264.218 0 .396.119.396.264zm-2.86-.084c-.191.077-.42.067-.508-.02-.087-.088.069-.15.348-.14.308.013.37.076.16.16zm-58.891.5c.193.773-.159 1.265-.808 1.13-.533-.11-.438-.617.118-.627.25-.005.373-.224.334-.595-.087-.804.146-.743.356.092zm-5.1-.504c.25.25.212 1.475-.058 1.9-.261.413-1.128.32-1.28-.138-.057-.17.171-.349.507-.397.832-.117 1.034-1.277.224-1.277-.33 0-.654.243-.796.596-.147.365-.246.436-.256.185-.032-.78 1.136-1.392 1.659-.869zm217.928.353c0 .145-.178.264-.396.264-.219 0-.397-.119-.397-.264 0-.146.178-.265.397-.265.218 0 .396.12.396.265zm-65.02-.064c.254.056.462.213.462.348 0 .31-.287.306-.786-.01-.475-.3-.305-.478.323-.338zm-98.757.068c0 .354-.764.839-1.046.664-.47-.29-.307-.6.385-.733.364-.07.661-.038.661.07zm-30.78.423c.407.62.413.765.065 1.39-.447.799-1.858 1.088-2.542.52-.368-.304-.343-.364.216-.52.346-.097 1.017-.189 1.49-.203.473-.015.86-.12.86-.232 0-.538-.889-1.382-1.455-1.382-.353 0-.814.26-1.044.588-.33.472-.412.5-.412.142 0-1.114 2.141-1.343 2.823-.303zm61.869.102c.09.146-.022.265-.249.265s-.413-.12-.413-.265c0-.145.113-.265.25-.265.136 0 .322.12.412.265zm-66.149.004c-.091.148-.277.2-.412.117-.367-.227-.299-.386.166-.386.227 0 .338.121.246.269zm189.445.278c.43.17.37.213-.331.228-.894.02-1.097-.1-.53-.313.183-.068.57-.03.86.085zm-62.773.165c.255.066.463.231.463.366 0 .388-1.433.285-2-.143-.487-.37-.473-.388.28-.367.437.013 1.003.077 1.257.144zm4.564.346c-.09.146-.335.265-.544.265-.21 0-.382-.119-.382-.265 0-.145.246-.264.545-.264.3 0 .471.119.381.264zm-57.679 0c.09.146-.022.265-.249.265s-.412-.119-.412-.265c0-.145.112-.264.249-.264s.322.119.412.264zm29.367.262c.093.15-.013.194-.249.104-.458-.176-.542-.366-.161-.366.136 0 .321.118.41.262zm-33.6.003c-.09.146-.276.265-.413.265-.136 0-.249-.12-.249-.265 0-.145.186-.265.413-.265.227 0 .339.12.249.265zm-79.243.09c0 .455-.738 1.112-.98.871-.094-.095.087-.414.404-.71.42-.391.576-.435.576-.161zm109.694.214c.065.104.006.257-.128.34-.305.189-1.087-.093-1.087-.39 0-.264 1.049-.22 1.215.05zm73.332.136c.182.074.33.257.33.409 0 .166-.156.145-.395-.054-.529-.438-1.647.272-1.878 1.193-.09.362-.265.658-.387.658-.428 0 .325-1.556.951-1.967.659-.431.829-.46 1.379-.239zm-71.667.288c.025.482.186.595.847.595.926 0 .96.608.04.744-.628.093-1.226-.764-1.036-1.485.085-.321.127-.28.15.146zm-39.422-.066c.006.29-.159.827-.367 1.19-.471.825-.471.431 0-.793.234-.607.36-.744.367-.397zm-1.58.132c.008.218-.101.576-.242.794-.313.484-.313.066 0-.662.15-.348.232-.394.242-.132zm84.742.582c-.247.247-.388.247-.635 0s-.176-.317.317-.317c.494 0 .565.07.318.317zm-106.68-.053c0 .146-.238.265-.53.265-.29 0-.528-.12-.528-.265 0-.145.238-.264.529-.264.29 0 .529.119.529.264zm25.714.181c-.19.076-.419.067-.507-.02-.088-.089.068-.151.347-.14.309.013.371.076.16.16zm130.39.99c0 .257.238.529.53.605.682.178.686.606.004.606-.52 0-1.053-1.157-.698-1.512.09-.09.164.045.164.302zm-21.203-.136c-.191.574-1.652 1.3-2.203 1.096-.493-.183-.487-.213.133-.615.907-.587 2.206-.89 2.07-.481zm-24.967.024c.09.145-.022.264-.249.264-.226 0-.412-.119-.412-.264 0-.146.112-.265.249-.265s.322.12.412.265zm-82.417 0c0 .145-.246.264-.545.264-.3 0-.471-.119-.381-.264.09-.146.335-.265.544-.265.21 0 .382.12.382.265zm-37.836-.02c0 .444-.782.666-1.129.32-.218-.22-.22-.3-.004-.3.163 0 .484-.073.715-.161.23-.088.418-.025.418.14zm-41.936.02c-.09.145-.365.262-.611.26-.386-.003-.393-.04-.05-.26.517-.335.868-.335.66 0zm216.79 1.058c0 1.045-.035 1.118-.287.595-.207-.428-.207-.762 0-1.19.252-.523.287-.45.287.595zm-39.652-.85c0 .4-.844.64-1.155.33-.188-.188-.181-.274.022-.274.163 0 .485-.072.715-.16.23-.089.418-.042.418.104zm-126.867.32c.263.292.356.53.205.53-.15 0-.415-.172-.59-.381-.173-.21-.634-.43-1.024-.49-.668-.102-.661-.11.11-.148.522-.025.994.153 1.299.49zm-42.907-.352c.625.625-.212 2.152-1.01 1.846-.636-.244-.466-.7.26-.7.476 0 .662-.142.662-.507 0-.278-.149-.567-.33-.64-.186-.075-.205-.143-.045-.154a.673.673 0 0 1 .463.155zm58.186.263c-.182.074-.48.074-.661 0-.182-.073-.033-.133.33-.133.364 0 .513.06.331.133zm-4.167.09c-.09.145-.328.264-.53.264-.2 0-.438-.119-.528-.264-.093-.15.135-.265.529-.265s.622.114.53.265zm135.12.18c-.192.077-.42.068-.508-.02-.088-.088.069-.15.348-.14.308.013.37.076.16.16zm-118.319.349c0 .145-.178.265-.397.265-.218 0-.397-.12-.397-.265 0-.146.179-.265.397-.265.219 0 .397.12.397.265zm-60.325.033c0 .294-.664.584-1.04.455-.146-.05.028-.229.387-.397.365-.171.653-.196.653-.058zm126.206.232c.239.154.271.258.082.26a.616.616 0 0 1-.478-.26c-.203-.329-.112-.329.396 0zm-13.444-.084c-.19.076-.419.067-.507-.021-.088-.088.069-.15.347-.14.309.014.371.076.16.16zm-80.445.107c.141.087.068.308-.165.502-.322.267-.568.278-1.071.048-.36-.163-.654-.39-.654-.502 0-.238 1.52-.277 1.89-.048zm-47.663-.023c0 .145-.112.264-.249.264s-.322-.119-.412-.264c-.09-.146.022-.265.249-.265s.412.119.412.265zm-8.568-.063c.971.64.42 2.4-.646 2.062-.782-.249-.728-.677.086-.677.868 0 .917-.972.066-1.314-.332-.134-.42-.245-.198-.252.218-.007.53.075.692.181zm-5.14-.021c-.191.076-.42.067-.508-.021-.087-.088.069-.15.348-.14.308.014.37.076.16.16zm-9.751.26c.27.271.209 1.36-.089 1.543-.157.098-.264-.217-.264-.778 0-.967.047-1.07.353-.765zm86.96.335c0 .321-.977.629-1.321.416-.524-.324-.254-.663.527-.663.436 0 .793.111.793.247zm47.473.434c.229.228.416.552.416.72 0 .167-.185.04-.412-.284-.508-.725-1.054-.74-2.168-.061-.473.288-.859.436-.858.33.003-.296 1.562-1.121 2.118-1.121.268 0 .675.187.904.416zm48.466.158c.127.206.049.255-.234.147-.24-.093-.861.122-1.432.494l-1.008.658.864-.804c.912-.849 1.493-1.008 1.81-.495zm-69.598.096c-.582.44-1.106.5-1.321.151-.175-.283.463-.56 1.26-.548.562.008.563.017.06.397zm-88.122-.141c-.09.145-.275.264-.412.264-.137 0-.25-.119-.25-.264 0-.146.186-.265.413-.265.227 0 .339.12.25.265zm206.17.351c-.127.381-.986.58-.986.228 0-.139.245-.317.545-.395.346-.09.506-.03.44.167zm-62.58-.034c-.247.247-.389.247-.636 0-.246-.247-.176-.317.318-.317s.564.07.317.317zm19.923.477c.09.145.037.264-.117.264s-.28-.119-.28-.264c0-.146.052-.265.116-.265.065 0 .19.12.28.265zm-128.59.004c-.092.148-.278.2-.413.116-.367-.227-.299-.385.166-.385.227 0 .338.12.246.269zm-39.289.005c0 .379-.56.594-.834.32-.169-.169-.069-.308.288-.402.3-.078.546-.042.546.082zm71.488.171c-.191.077-.42.067-.508-.02-.087-.089.069-.151.348-.14.308.013.37.076.16.16zm-58.266.338c.214.136.32.315.236.4-.084.084-.304-.029-.488-.25-.381-.46-.308-.504.252-.15zm149.172.325c-.058.173-.402.536-.764.807-.53.395-.8.439-1.373.221-.853-.324-.975-.944-.143-.726.313.082.903-.023 1.31-.234.899-.465 1.107-.48.97-.068zm-30.366-.05c0 .146-.239.265-.53.265-.29 0-.529-.12-.529-.265 0-.145.238-.264.53-.264.29 0 .529.119.529.264zm-68.13 0c-.09.146-.395.265-.678.265-.282 0-.513-.12-.513-.265 0-.145.304-.264.677-.264.384 0 .606.114.513.264zm-62.045 0c0 .146-.186.265-.413.265-.227 0-.339-.12-.249-.265.09-.145.276-.264.413-.264.137 0 .249.119.249.264zm206.44.176c-.181.073-.479.073-.66 0-.183-.074-.034-.134.33-.134s.513.06.33.134zm-190.847.266c.648.454.704 1.332.137 2.141-.37.529-.485.553-1.216.255-1.059-.432-.98-.86.14-.763.636.055.935-.05 1.058-.371.256-.668-.355-1.236-1.197-1.113-.809.12-.797-.185.015-.397.284-.074.762.037 1.063.248zm96.325.083c0 .626-2.642.692-2.846.07-.078-.237.306-.33 1.369-.33.813 0 1.477.117 1.477.26zm-92.025-.08c-.191.077-.42.068-.507-.02-.088-.088.068-.15.347-.14.308.014.371.076.16.16zm117.16.388c0 .38-.552.527-1.331.356-.434-.095-.72-.286-.635-.423.178-.288 1.967-.227 1.967.067zm-52.334.279c-.247.247-.388.247-.635 0s-.176-.318.318-.318.564.07.317.318zm-8.402-.078c.081.132-.09.178-.382.101-.617-.161-.696-.34-.148-.34.21 0 .448.107.53.24zm-11.123.355c.853 1.324-.27 2.862-1.807 2.476-.99-.248-.872-.865.152-.795 1.173.082 1.548-.121 1.548-.836 0-1.275-1.722-1.29-2.336-.02-.214.44-.278.467-.292.12-.022-.538 1.19-1.54 1.864-1.54.268 0 .66.268.87.595zm-54.413-.382c.473.047.86.197.86.333 0 .343-1.516.313-1.73-.034-.23-.371-.147-.4.87-.299zm60.706.497c-.191.076-.42.067-.507-.02-.088-.089.068-.151.347-.14.308.013.37.076.16.16zm-85.246.02c0 .448-.704.876-1.157.702-.237-.091-.43-.285-.43-.43 0-.146.193-.19.43-.1.237.091.594.03.794-.136.217-.18.363-.195.363-.037zm115.49.328c-.09.146-.334.265-.544.265-.21 0-.381-.119-.381-.265 0-.145.245-.264.545-.264.3 0 .47.119.38.264zm-9.921.016c0 .154-.12.207-.265.117-.145-.09-.264-.216-.264-.28 0-.065.119-.117.264-.117.146 0 .265.126.265.28zm-15.108.296c.037.992-.64 1.627-1.337 1.254-.618-.33-.446-.62.373-.632.376-.005.63-.23.753-.669l.185-.661.026.708zm-1.867-.047c0 .364-.06.513-.134.33a1.021 1.021 0 0 1 0-.66c.074-.183.134-.034.134.33zm-2.461-.247c.096.155.118.34.048.408-.069.07-.196-.057-.282-.282-.18-.466-.027-.548.234-.126zm-50.15-.017c0 .145-.185.264-.412.264-.227 0-.339-.119-.249-.264.09-.146.276-.265.413-.265.137 0 .249.119.249.265zm-24.473 0c-.09.145-.276.264-.413.264-.137 0-.249-.119-.249-.264 0-.146.186-.265.413-.265.226 0 .339.119.249.265zm172.975.297c-.18.18-.393.262-.474.18-.082-.08.065-.229.326-.328.377-.144.408-.113.148.148zm-118.606.044c1.661.84.328 3.083-1.431 2.408-.865-.332-.438-.833.68-.799 1.183.037 1.488-.264.955-.942-.52-.663-1.41-.821-1.893-.337-.234.234-.425.32-.425.194 0-.37.6-.866 1.045-.862.225.002.707.154 1.07.338zm-25.154.03c.18.216.234.667.131 1.078-.23.917-1.295 1.351-2.22.905-.657-.317-.648-.327.523-.568.654-.135 1.298-.35 1.43-.476.385-.368-.326-1.005-1.252-1.12-.83-.105-.829-.106.12-.148.548-.024 1.092.117 1.268.33zm-9.639-.103c-.091.148-.277.2-.412.117-.367-.227-.299-.385.166-.385.227 0 .337.12.246.268zm-16.085.107c-.13.389-.975.527-1.29.212-.166-.166.034-.3.564-.377.516-.076.785-.015.726.165zm205.094.076c-.89.137-1.473.785-1.62 1.798-.105.731-.117.717-.154-.18-.05-1.209.514-1.818 1.633-1.765.76.036.773.05.14.147zm-51.521.54c.329.42.32.43-.1.1-.255-.2-.463-.407-.463-.462 0-.218.217-.078.563.363zm4.983.453c.496.528.582.837.452 1.633-.248 1.533-1.429 2.022-3.012 1.248-1.35-.66-1.485-1.634-.379-2.74.996-.996 2.087-1.048 2.94-.14zm-2.636.408c-.291.29-.53.75-.53 1.02 0 .423.24.497 1.752.539l1.75.048-.184-.736c-.102-.405-.309-.886-.46-1.068-.421-.507-1.735-.396-2.328.197zm-84.931-.825c0 .285-.802.516-1.257.363-.628-.212-.328-.597.463-.597.437 0 .794.105.794.234zm-10.319.03c0 .146-.186.266-.412.266-.227 0-.34-.12-.25-.265.09-.146.276-.265.413-.265.137 0 .25.12.25.265zm72.76.281c0 .154-.119.207-.264.117-.146-.09-.265-.216-.265-.28 0-.065.12-.117.265-.117.145 0 .264.126.264.28zm-124.376.448c1.197.613 1.935 1.99 1.574 2.939-.448 1.176-1.029 1.624-2.106 1.624-1.94 0-1.623-.967.443-1.353.692-.129 1.317-.293 1.388-.364.317-.317-.861-2.234-1.549-2.519-1.433-.594-2.046.233-1.863 2.517.035.44-.004.462-.23.132-.448-.653-.317-1.999.268-2.742.646-.822.876-.848 2.075-.234zm49.549-.018c-.191.076-.42.067-.507-.021-.088-.088.068-.15.347-.14.308.014.371.076.16.16zm31.833.348c-.09.146-.276.265-.413.265-.137 0-.249-.12-.249-.265 0-.145.186-.264.413-.264.227 0 .339.119.249.264zm115.49.232c0 .128-.178.38-.397.562-.43.357-.484.272-.236-.375.17-.443.633-.58.633-.187zm-52.944.055c.348.14.562.325.475.412-.234.234-1.506-.137-1.506-.44 0-.311.195-.306 1.03.028zm-59.26.132c-.013.308-.075.371-.16.16-.076-.191-.067-.42.021-.507.088-.088.15.068.14.347zm120.133.044c-.005.11-.182.428-.394.71-.342.45-.336.566.05.993.241.266.369.552.284.637-.084.084-.359-.16-.61-.543-.39-.597-.406-.79-.109-1.346.329-.613.798-.884.78-.45zm-70.056.247c-.191.076-.42.067-.507-.02-.088-.089.068-.151.347-.14.308.013.37.076.16.16zm-152.788.213c-.066.54-.985.93-.985.42 0-.157.169-.285.375-.285a.624.624 0 0 0 .525-.33c.082-.182.12-.094.085.195zm144.126.071c-.138.11-.668.557-1.177.992l-.926.791.911-.991c.502-.546 1.032-.992 1.178-.992.165 0 .17.076.014.2zm-39.807-.008c0 .426-.801 1.172-1.138 1.06-.51-.17-.506-.723.005-.723.274 0 .641-.143.816-.318.224-.224.317-.23.317-.019zm30.742.782c-.191.077-.42.067-.507-.02-.088-.089.068-.151.347-.14.308.013.37.076.16.16zm-18.703.084c-.09.146-.276.265-.412.265-.137 0-.25-.12-.25-.265 0-.145.186-.265.413-.265.227 0 .339.12.249.265zm-29.104 0c-.09.146-.484.256-.876.246-.635-.017-.655-.043-.182-.246.735-.316 1.253-.316 1.058 0zm-83.68.31c-.153.153-.435.227-.626.163-.198-.066-.078-.186.28-.28.44-.115.543-.08.346.116zm194.805.22c-.09.145-.216.264-.28.264-.065 0-.117-.12-.117-.265 0-.145.126-.264.28-.264.154 0 .207.119.117.264zm-54.045.774c-.476.447-1.1.813-1.39.813-.853 0-.604-.392.6-.942 1.674-.765 1.73-.756.79.129zm-137.513-.51c.09.145-.082.264-.382.264s-.545-.119-.545-.264c0-.146.172-.265.382-.265.21 0 .455.12.545.265zm103.584.794c0 .334-.54.334-1.058 0-.31-.2-.237-.258.33-.26.4-.003.728.114.728.26zm-30.756.176c.183.073.268.237.19.364-.172.277-.92.03-.92-.304 0-.255.205-.272.73-.06zm5.945.5c.396.216.855.658 1.02.982.254.503.195.483-.399-.134-.383-.398-1.02-.796-1.416-.883-1.157-.254-1.292-.334-.588-.345.364-.006.986.166 1.383.38zm-29.693.119c0 .36-.797 1.057-1.21 1.057-.64 0-.42-.47.416-.887.437-.217.794-.294.794-.17zm-8.879.587c.465.664.54 1.264.156 1.264-.141 0-.192-.17-.112-.377s-.103-.624-.405-.926c-.303-.302-.438-.55-.3-.55.137 0 .435.265.661.589zm-1.496-.218c-.187.203-.383.33-.434.282-.156-.15.241-.652.516-.652.143 0 .106.166-.082.37zm23.207.518c.71 1.085-.014 1.826-1.301 1.332-.799-.306-.422-.658.516-.482.93.175.933.172.619-.517-.34-.747-.96-.89-1.554-.362-.316.282-.319.262-.02-.132.49-.648 1.257-.576 1.74.161zm106.015.086c-.19.076-.419.067-.507-.02-.088-.089.068-.151.347-.14.309.013.371.075.16.16zm-37.627.267c-.36.246-.742.574-.849.728-.133.191-.196.185-.198-.02-.002-.166.289-.493.648-.728.87-.57 1.234-.552.399.02zm-52.321.29c.542.394.988.866.992 1.048.011.565-.376.37-1.449-.727-1.188-1.217-.977-1.366.457-.321zm-23.935-.562c.183.074.461.374.617.666.261.487.217.48-.542-.08-.693-.513-.91-.56-1.342-.29-.722.451-.995.402-.374-.067.524-.396 1.045-.469 1.64-.229zm-36.119.264c-.182.073-.48.073-.661 0-.182-.073-.034-.133.33-.133s.513.06.331.133zm127.049.345c.797.284.07.545-.8.285-.423-.127-.71-.25-.638-.273.509-.166.997-.17 1.438-.012zm-105.42.299c.79.39.855.487.442.65-.328.13-.667.01-1.044-.367-.743-.742-.528-.843.603-.283zm73.407.214c.084.136-.308.178-.908.098-.688-.092-1.218-.015-1.521.223-.423.332-.432.323-.103-.097.387-.494 2.263-.66 2.532-.224zm-124.735.025c0 .146-.232.265-.514.265-.282 0-.587-.12-.677-.265-.093-.15.13-.264.513-.264.373 0 .678.119.678.264zm94.853.265c-.09.145-.454.264-.81.264-.355 0-.646-.119-.646-.264 0-.146.365-.265.81-.265.472 0 .741.11.646.265zm-89.512-.084c-.191.076-.42.067-.507-.02-.088-.089.068-.151.347-.14.308.013.37.076.16.16zm138.327.754c0 .393-.588.653-1.477.653-.988 0-.757-.389.419-.703.822-.22 1.058-.208 1.058.05zm-35.243.191c.44.53.683 1.785.347 1.785-.161 0-.293-.229-.293-.508 0-1.238-.793-1.768-1.535-1.027-.767.767-.077 2.108 1.017 1.977.212-.025.445.074.518.22.073.145-.253.3-.724.346-.752.073-.91-.03-1.298-.843-.413-.866-.413-.97.003-1.604.479-.73 1.497-.91 1.966-.346zm-21.788-.097c-.4.374-1.442.62-1.442.34 0-.289.63-.575 1.266-.575.261 0 .33.091.176.235zm-21.22-.042c1.034.108 1.295.428.574.705-.693.266-1.08.186-1.735-.36-.406-.339-.486-.508-.227-.485.218.02.843.083 1.389.14zm-5.688.13c.328.158.596.39.596.517s-.303.032-.673-.21c-.55-.36-.802-.385-1.389-.134-.666.285-.68.278-.203-.095.592-.463.847-.475 1.67-.078zm105.844.34c-.103.16-.304.583-.446.939-.163.409-.265.487-.275.213-.01-.238.191-.66.446-.938.255-.278.379-.374.275-.214zm-143.828-.218c-.191.077-.42.067-.507-.02-.088-.089.068-.151.347-.14.308.013.371.076.16.16zm-12.823.171c-.126.38-.985.58-.985.228 0-.14.245-.317.544-.396.347-.09.507-.03.441.168zm170.2.023c0 .074-.483.264-1.074.424-.592.159-1.276.357-1.522.44-.328.11-.306.045.083-.242.524-.388 2.513-.88 2.513-.622zm-54.483.414c-.377.33-.914.528-1.303.481-.84-.1-1.03-.601-.24-.63.328-.011.953-.11 1.39-.217l.794-.195zm-90.723-.343c-.191.076-.42.067-.507-.021-.088-.088.068-.15.347-.14.308.014.37.076.16.16zm-20.74.401c.83.831-.297 2.232-1.196 1.487-.372-.308-.331-.365.347-.484.996-.175 1.046-.927.062-.915-.39.005-.65-.084-.58-.198.194-.314 1.008-.248 1.367.11zm174.28.74c.09.146.038.266-.116.266s-.28-.12-.28-.265c0-.146.052-.265.117-.265.064 0 .19.12.28.265zm-127.303-.082c.092.091.034.326-.128.522-.386.465-1.669.455-2.06-.016-.253-.305-.146-.37.612-.37.505 0 1.03-.068 1.164-.152.135-.083.32-.076.412.016zm96.744.284c0 .16.209.344.463.41.418.11.42.124.016.152-.477.033-.902-.428-.637-.692.087-.088.158-.03.158.13zm59.796.328c0 .146-.178.265-.397.265-.218 0-.396-.12-.396-.265 0-.145.178-.264.396-.264.219 0 .397.119.397.264zm-144.925-.082c.55.144.622.611.094.611-.203 0-.437-.178-.52-.397-.084-.218-.127-.383-.095-.366.032.017.266.085.52.152zm-54.045.133c.002.246-.116.521-.263.612-.355.219-1.32-.098-1.32-.434 0-.15.244-.187.561-.086.353.112.647.045.79-.18.179-.283.228-.264.232.088zm148.7.21c0 .311-.754.547-.915.287-.076-.123.099-.285.388-.36.29-.076.526-.043.526.073zm-77.618.248c.799.487 1.36 1.079 1.022 1.079-.089 0-.6-.298-1.135-.662-1.212-.823-1.505-.825-2.318-.012-.752.752-.828.663-.222-.262.523-.798 1.493-.85 2.653-.143zm-38.588.338c.76.76-.17 2.604-1.127 2.236-.648-.248-.472-.659.32-.75.577-.066.728-.22.728-.742 0-.82-.873-1.06-1.371-.378-.192.261-.349.358-.349.214 0-.402.585-.898 1.059-.898.232 0 .566.143.74.318zm128.905.206c0 .62-2.11.685-2.315.072-.077-.233.25-.331 1.103-.331.667 0 1.212.117 1.212.26zm-172.155-.083c.292.293.198 1.548-.141 1.888-.175.174-.675.317-1.111.317-1.217 0-.397-.644.984-.773.119-.011.178-.288.132-.616-.064-.45-.256-.593-.792-.586-.39.005-.65-.085-.58-.199.156-.252 1.263-.275 1.508-.03zm144.688.27c-.19.076-.419.066-.507-.022-.088-.088.069-.15.348-.139.308.013.37.076.16.16zm-39.93.369c-.094.358-.214.478-.28.28-.063-.191.01-.473.164-.627.196-.197.23-.093.116.347zm-36.055-.286c0 .146-.171.265-.38.265-.21 0-.456-.12-.546-.265-.09-.145.082-.265.382-.265s.544.12.544.265zm-52.321-.082c.255.066.463.143.463.17 0 .026.11.432.245.901.336 1.173-.358 2.083-1.39 1.824-1.012-.254-.872-.696.219-.696.855 0 .926-.062.926-.803 0-.84-.76-1.377-1.587-1.122-.353.109-.353.09 0-.163.218-.157.456-.273.529-.259.073.015.34.081.595.148zm159.83.523c.393.393.142.6-.353.29-.682-.425-1.42-.003-1.543.884-.049.349-.198.747-.33.885-.368.382-.299-.267.14-1.318.312-.746.526-.917 1.147-.917.42 0 .842.08.94.176zm-138.134-.001c-.182.073-.48.073-.662 0-.181-.073-.033-.133.331-.133s.513.06.33.133zm111.786.375c-.254.148-.463.515-.463.815 0 .454.114.516.688.372.498-.125.656-.079.573.17-.063.188-.402.342-.754.342-.466 0-.662-.165-.725-.61-.093-.653.357-1.38.846-1.367.164.004.09.13-.165.278zm-44.009.074c-.092.239-.422.425-.734.413-.387-.014-.44-.067-.17-.168a3.23 3.23 0 0 0 .734-.413c.252-.2.295-.157.17.168zm-26.486.076c.094.094.784.268 1.533.386 1.548.245 1.845.424 1.287.776-.804.51-1.986.279-2.77-.54-.418-.436-.639-.793-.49-.793.148 0 .346.077.44.17zm-8.09.276c-.245.246-.535.359-.643.25-.109-.108-.022-.307.192-.443.644-.407.93-.285.452.193zm93.204.082c0 .146-.186.265-.413.265-.227 0-.339-.12-.249-.265.09-.145.276-.265.413-.265.137 0 .249.12.249.265zm-56.022.033c-.179.18-.393.262-.474.18-.081-.081.065-.229.326-.328.377-.144.408-.113.148.148zm-63.409.345c.326.847-.014 1.605-.756 1.69-.865.1-.994-.406-.135-.528.721-.103.944-.945.314-1.187-.289-.11-.585.004-.813.316-.197.27-.359.372-.359.228 0-.788 1.478-1.227 1.75-.52zm-39.19-.11c-.091.149-.277.201-.412.118-.367-.227-.299-.386.166-.386.227 0 .338.121.246.269zm109.54.526c.466.2.44.23-.214.246-.432.01-.674-.093-.58-.246.09-.146.187-.256.215-.246.027.01.288.12.58.246zm-27.352.094c-.199.24-.609.435-.911.435-.671 0-.317-.388.612-.67.59-.18.622-.155.299.235zm-19.347.186c0 .154-.119.207-.264.117-.146-.09-.265-.216-.265-.28 0-.065.12-.117.265-.117.145 0 .264.126.264.28zm-33.817-.1c-.19.077-.419.067-.507-.02-.088-.088.069-.151.347-.14.309.013.371.076.16.16zm28.84.53c-.191.076-.42.067-.507-.021-.088-.088.068-.15.347-.14.308.013.371.076.16.16zm112.134.485c0 .437-1.023.798-1.346.475-.136-.136.097-.36.556-.532.633-.24.79-.228.79.057zm-33.206.128c.09.145.038.264-.116.264s-.28-.119-.28-.264c0-.146.052-.265.116-.265s.19.12.28.265zm-74.083 0c-.09.145-.328.264-.53.264-.2 0-.438-.119-.528-.264-.093-.151.135-.265.529-.265s.622.114.53.265zm-46.57.269c-.09.147-.276.2-.412.116-.367-.227-.298-.385.166-.385.227 0 .338.12.247.269zm-13.044.176c-.19.076-.419.067-.507-.02-.088-.089.068-.151.347-.14.309.013.371.076.16.16zm-2.316.33c.864.954-.295 2.264-1.57 1.775-.479-.184-.533-.74-.066-.679.807.105 1.786-.04 1.786-.265 0-.61-.898-1.123-1.697-.97-.587.113-.705.084-.42-.103a1.525 1.525 0 0 1 1.967.241zm21.49.691c.086.225.097.468.025.54-.072.072-.195-.112-.272-.408-.165-.63.018-.728.247-.132zm138.782.831c-.19.076-.419.067-.507-.02-.088-.089.069-.151.348-.14.308.013.37.076.16.16zm27.645.445c-.267.214-.66.608-.875.874-.363.45-.37.443-.105-.105.157-.324.55-.717.875-.874.548-.265.555-.258.105.105zm-87.093-.096c.207.334-.143.334-.662 0-.342-.222-.335-.258.05-.261.247-.002.522.115.612.26zm-80.037 0c.342.22.335.257-.05.26-.246.002-.521-.115-.611-.26-.207-.335.143-.335.661 0zm-11.217.396c-.276.21-.616.31-.756.223-.306-.189.296-.613.86-.607.306.003.282.092-.104.384zm133.521.043c-.182.074-.48.074-.661 0-.182-.073-.034-.133.33-.133s.513.06.331.133zm-8.467.265c-.182.073-.48.073-.661 0-.182-.073-.033-.134.33-.134.364 0 .513.06.331.134zm-8.003.09c0 .145-.328.262-.728.26-.567-.003-.64-.06-.33-.26.517-.335 1.058-.335 1.058 0zm-31.353 0c-.09.145-.395.264-.677.264-.283 0-.514-.12-.514-.265 0-.145.305-.264.677-.264.384 0 .606.114.514.264zm-38.894.264c-.09.145-.335.264-.545.264-.21 0-.381-.119-.381-.264 0-.146.245-.265.545-.265.3 0 .47.12.38.265zm132.424.487c0 .192-1.13.836-1.468.836-.38 0-.02-.49.554-.752.804-.366.914-.376.914-.084zm-87.433.427c.357.357.65.79.65.962 0 .171-.247-.001-.549-.385-.547-.696-1.909-.966-2.513-.499-.141.11-.033-.01.24-.265.69-.64 1.407-.579 2.172.187zm51.251.345c.255.056.463.213.463.348 0 .338-.723.31-.937-.037-.223-.361-.103-.44.474-.311zm-16.47.043c0 .33-1.495.638-1.894.392-.225-.14-.168-.257.191-.398.728-.285 1.703-.282 1.703.006zm-30.957.02c.219.142.278.257.133.257-.146 0-.443-.115-.662-.256-.218-.141-.278-.257-.132-.257.146 0 .443.116.661.257zm53.892.267c2.104.848.782 4.671-1.538 4.45-1.226-.118-1.041-.546.416-.963 2.02-.577 2.62-2.371.999-2.988-.919-.35-1.944.401-2.306 1.689-.287 1.02-.663 1.568-.661.963.005-1.152.619-2.422 1.404-2.9.945-.577.894-.57 1.686-.25zm-121.84-.086c-.19.077-.419.067-.507-.02-.088-.088.068-.15.347-.14.309.013.371.076.16.16zm-33.524.591c.2.91-.307 1.875-.985 1.875-.256 0-.465-.12-.465-.265 0-.146.224-.265.498-.265.597 0 .907-.94.537-1.63-.163-.304-.166-.486-.007-.486.14 0 .33.347.422.771zm-27.441.287c0 .51-.054.718-.121.463a2.174 2.174 0 0 1 0-.926c.066-.255.121-.046.121.463zm58.27-.24c0 .132-.238.24-.53.24-.29 0-.529-.046-.529-.101 0-.056.239-.164.53-.24.29-.076.529-.03.529.101zm165.629.24a.265.265 0 0 1-.53 0c0-.145.12-.265.265-.265.146 0 .265.12.265.265zm-57.018 0c.09.146-.022.265-.249.265s-.412-.12-.412-.265c0-.145.112-.265.249-.265s.322.12.412.265zm-93.265 0c0 .146-.179.265-.397.265-.219 0-.397-.12-.397-.265 0-.145.178-.265.397-.265.218 0 .397.12.397.265zm54.9.237c.633.139.7.212.331.357-.524.207-1.256-.002-1.256-.358 0-.13.03-.222.066-.205.036.018.423.11.86.206zm-31.668.052c-.143.437-1.801.673-1.801.257 0-.155.228-.281.507-.281.28 0 .712-.079.962-.175.32-.122.419-.063.332.199zm-10.466.416c-.182.073-.48.073-.662 0-.182-.074-.033-.134.331-.134s.513.06.33.134zm38.96.618c-.488.538-1.078.657-1.83.369-.76-.292-.436-.603.473-.455.523.084.968.023 1.074-.15.1-.161.312-.293.472-.293.159 0 .074.238-.19.529zm-76.65-.212c.45.45.394 1.685-.098 2.178-.446.445-1.84.567-2.08.181-.079-.128.39-.368 1.043-.533.875-.22 1.188-.428 1.188-.792 0-1.308-1.901-1.39-2.262-.097-.16.572-.229.626-.317.248-.257-1.094 1.7-2.01 2.526-1.185zm-4.048-.053c-.09.146-.276.265-.413.265-.137 0-.249-.119-.249-.265 0-.145.186-.264.413-.264.227 0 .339.119.249.264zm163.84.402c.327.23.73.681.895 1.001.26.502.194.482-.475-.146-.929-.87-1.631-.92-2.43-.176-.507.472-.567.72-.417 1.72.118.787.079 1.168-.12 1.168-.51 0-.367-2.763.169-3.245.732-.66 1.713-.793 2.379-.322zm-169.744-.22c-.19.076-.419.066-.507-.022-.088-.088.068-.15.347-.139.309.013.371.076.16.16zm-18.124.281c.278.255.374.379.213.276-.16-.104-.582-.304-.938-.447-.41-.163-.488-.264-.214-.275.239-.009.661.192.939.446zm4.364.312c.357.28.805.985.997 1.566.32.967.3 1.134-.238 2.004-.709 1.147-1.473 1.382-2.754.848-1.285-.537-1.25-1.02.069-.925.607.044 1.233-.084 1.521-.31.45-.354.46-.348.126.077-.23.293-.256.463-.072.463.16 0 .479-.286.708-.636.374-.57.376-.735.02-1.587-.219-.523-.693-1.085-1.054-1.25-.552-.251-.775-.207-1.403.28-.41.319-.89.9-1.065 1.291-.293.656-.32.666-.33.126-.017-.806 1.481-2.457 2.228-2.457.33 0 .89.23 1.247.51zm92.556.056c0 .125-.297.228-.661.228-.364 0-.662-.046-.662-.102 0-.055.298-.158.662-.228.364-.07.661-.023.661.102zm-17.33-.037c.09.146-.089.265-.397.265-.308 0-.487-.12-.397-.265.09-.145.269-.264.397-.264.129 0 .307.119.397.264zm-28.993.684c-.012.308-.075.37-.16.16-.076-.191-.066-.42.021-.508.088-.088.15.069.14.348zm-50.97-.051c.403.179.66.397.572.486-.22.219-1.704-.317-1.704-.616 0-.3.214-.276 1.131.13zm40.54.16c-.09.146-.335.265-.545.265-.21 0-.38-.119-.38-.264 0-.146.244-.265.544-.265.3 0 .471.12.381.265zm95.846.95c.473.372.86.796.86.941 0 .145-.19.074-.422-.158-.716-.715-1.96-1.239-2.52-1.06-.294.093-.764.545-1.045 1.005-.357.586-.51.694-.51.361-.002-.732 1.197-1.774 2.037-1.77.407.001 1.127.307 1.6.68zm-153.587-.123c-.18.181-.393.263-.474.181-.082-.081.065-.23.326-.329.377-.143.408-.113.148.148zm13.174.72c1.002.812.232 2.44-.941 1.99-.633-.244-.46-.626.283-.626.554 0 .664-.11.595-.595-.064-.456-.255-.593-.812-.585-.862.013-.89-.037-.223-.394.384-.205.647-.155 1.098.21zm41.452.393c-.127.38-.986.58-.986.228 0-.14.245-.317.544-.396.347-.09.507-.03.442.168zm-25.24-.175c.288.287.202 1.28-.14 1.623-.375.374-1.27.425-1.27.07 0-.135.266-.283.592-.33.824-.117.926-.95.155-1.26-.577-.231-.581-.247-.064-.263.303-.009.63.063.728.16zm191.074.386c-.765.46-.906.768-.77 1.674.117.778.11.785-.202.184-.263-.505-.25-.754.069-1.321.215-.384.626-.734.912-.777.51-.076.51-.07-.009.24zm-145.058-.123c-.182.074-.48.074-.661 0-.182-.073-.033-.133.33-.133.364 0 .513.06.331.133zm-39.704.27c-.19.077-.419.067-.507-.02-.088-.088.068-.151.347-.14.309.013.371.076.16.16zm194.733.53c-.19.076-.419.066-.507-.021-.088-.088.069-.15.348-.14.308.013.37.076.16.16zm-47.96-.087c-.061.052-.528.17-1.037.264-.652.12-.808.093-.53-.09.36-.235 1.829-.398 1.566-.174zm-106.362.325c-.013.308-.075.37-.16.16-.076-.191-.067-.42.021-.508.088-.087.15.069.139.348zm-17.495-.102c.39.39.402 1.008.028 1.535-.219.308-.248.24-.13-.3.293-1.357-1.62-1.831-1.99-.494-.153.554-.187.573-.21.12-.035-.728.46-1.178 1.297-1.178.378 0 .83.143 1.005.317zm94.113.465c1.309.168 1.315.173.578.488-.913.389-1.386.399-2.05.043-.572-.305-.694-.807-.182-.742.182.022.926.118 1.654.211zm51.858.276c.09.146-.075.265-.366.265-.29 0-.602-.12-.692-.265-.09-.145.074-.265.365-.265s.603.12.693.265zm-13.06.28.625.545-.794-.465c-1.045-.611-1.06-.625-.735-.625.154 0 .56.246.904.545zm-116.52-.258c.65.246.789.51.265.503-.42-.005-1.15-.459-.985-.612.069-.064.393-.014.72.11zm114.982.246c-.172.22-.36.875-.419 1.455l-.108 1.055-.044-1.092c-.031-.764.094-1.2.418-1.455.404-.317.424-.312.152.037zm-71.127-.003c-.09.146-.216.265-.28.265-.064 0-.117-.12-.117-.265 0-.146.126-.265.28-.265.154 0 .207.12.117.265zm-29.17.175c-.182.074-.48.074-.662 0-.182-.073-.033-.133.331-.133s.513.06.33.133zm92.67.619c-.09.145-.454.264-.81.264-.355 0-.645-.119-.645-.264 0-.146.364-.265.81-.265.471 0 .74.11.645.265zm45.376.264c0 .146-.172.265-.381.265-.21 0-.455-.12-.545-.265-.09-.145.082-.264.381-.264.3 0 .545.119.545.264zm-169.477-.018c.084.136.052.308-.07.384-.313.193-1.374-.113-1.374-.397 0-.311 1.25-.3 1.444.013zm-31.408.077c.328.158.595.456.595.662 0 .311-.069.306-.405-.03-.658-.658-2.236-.835-3.089-.346-.406.234-.739.315-.739.182 0-.726 2.45-1.041 3.638-.468zm194.072.117c-.182.073-.48.073-.661 0-.182-.074-.034-.134.33-.134s.513.06.331.134zm-108.276.492c.28.337.264.375-.1.236-.238-.092-.434-.273-.434-.403 0-.34.153-.292.534.167zm26.924 1.067c.439.307.581.66.56 1.39l-.026.976-.21-.889c-.259-1.093-.825-1.697-1.39-1.48-.594.227-.968 1.439-.69 2.238.216.627.207.635-.17.147-.476-.616-.498-1.049-.092-1.819.554-1.054 1.1-1.206 2.018-.563zm-35.819.074c.067.109-.107.215-.388.237-.608.045-.662-.08-.123-.286.214-.082.444-.06.511.049zm-20.693-.04c-.191.076-.42.067-.508-.021-.087-.088.069-.15.348-.14.308.013.37.076.16.16zm-9.961.101c.096.155.118.339.048.408-.069.07-.196-.057-.282-.282-.18-.466-.027-.548.234-.126zm-46.445.254c-.933.739-1.777.908-2.6.52-.7-.331-.692-.338.748-.684.8-.192 1.693-.352 1.984-.355.484-.005.472.04-.132.519zm164.306-.007c.323.208.288.257-.183.26-.319.002-.653-.115-.743-.26-.208-.337.405-.337.926 0zm-86.376.282c.096.155.118.339.049.408-.07.07-.197-.058-.283-.282-.179-.466-.026-.548.234-.126zm70.63.516c-.09.148-.276.2-.412.116-.367-.226-.298-.385.166-.385.227 0 .338.12.247.269zm-160.954.081c.318.242.369.457.185.785-.276.494-1.156.61-1.417.188-.093-.15.13-.265.513-.265.737 0 .856-.245.36-.74-.413-.413-.201-.394.359.032zm58.192.342c.307.37.287.414-.144.33-.274-.053-.549-.245-.61-.427-.156-.472.334-.409.754.097zm-14.413.221c.08.211.07.51-.024.662-.245.396-.853.342-1.018-.09-.102-.265.014-.327.413-.222.435.114.518.05.385-.295-.092-.241-.109-.44-.036-.44.073 0 .199.174.28.385zm-22.99-.2c-.257.066-.614.062-.794-.01-.179-.073.032-.128.469-.123.436.005.583.065.325.132zm69.392.345c0 .146-.126.265-.28.265-.154 0-.207-.12-.117-.265.09-.145.216-.264.28-.264.065 0 .117.119.117.264zm-25.4.53c0 .145-.185.264-.412.264-.227 0-.34-.12-.25-.265.09-.145.276-.264.413-.264.137 0 .25.119.25.264zm-60.192 0c.09.145.044.264-.102.264-.145 0-.338-.12-.428-.265-.09-.145-.044-.264.101-.264.146 0 .339.119.429.264zm129.896 1.042c.256.283.403.67.327.86-.098.245-.145.223-.16-.072-.011-.23-.313-.575-.67-.766-.555-.297-.748-.283-1.323.094-.425.278-.687.707-.71 1.163-.032.646-.048.657-.152.11-.294-1.536 1.647-2.539 2.688-1.389zm-9.643-.249.661.212-.712.026c-.391.015-.785-.092-.875-.238-.186-.3-.014-.3.926 0zm-21.911-.084c-.191.077-.42.067-.507-.02-.088-.089.068-.151.347-.14.308.013.37.076.16.16zm-98.287.185c-.12.367-1.246.56-1.246.213 0-.139.302-.31.672-.38.424-.082.636-.02.574.167zm-19.965.817c.254.35.458.853.452 1.116-.006.296-.153.15-.384-.38-.339-.78-.649-.994-1.279-.885-.12.02-.142-.084-.05-.233.275-.445.768-.295 1.26.382zm17.509.119c.872.963.05 2.501-1.07 1.998-.438-.198-.412-.237.217-.323.73-.1 1.195-.866.858-1.412-.099-.16-.465-.237-.813-.17-.51.097-.575.05-.333-.24.399-.481.595-.456 1.14.147zm63.154.023c.488.286 1.18 1.785.936 2.03-.089.088-.242-.065-.34-.34-.692-1.939-2.538-1.913-3.707.051-.264.445-.284.417-.166-.227.25-1.368 2.08-2.213 3.277-1.514zm96.889 1.27c1.007 1.05.885 1.378-.15.4-.472-.447-1.038-.878-1.256-.957-.276-.1-.231-.15.149-.165.3-.011.866.314 1.257.722zm-141.388-.325c-.35.421-.776.5-.776.143 0-.129.245-.298.544-.376.447-.117.488-.075.232.233zm49.23.137c0 .131-.238.24-.53.24-.29 0-.528-.046-.528-.102 0-.056.238-.164.529-.24.29-.076.529-.03.529.102zm-21.167-.04c0 .136-.117.32-.261.41-.15.092-.195-.014-.104-.25.176-.458.365-.541.365-.16zm-39.211.068c.672.671.149 2.328-.735 2.328-.277 0-.577-.12-.667-.265-.09-.145.067-.264.349-.264.65 0 1.212-.664 1.01-1.194-.087-.223-.427-.515-.758-.648-.563-.226-.567-.242-.059-.258.298-.01.685.126.86.3zm150.26 1.137c-.001.728-.053.994-.114.592-.06-.402-.059-.997.004-1.323.063-.325.113.004.11.731zm-115.455-.442c.593.656.578 2.486-.026 3.016-.943.829-1.604.823-2.449-.021-.978-.979-1.047-2.088-.18-2.903.752-.706 2.058-.751 2.655-.092zm-2.673.905c-.183.372-.26.867-.17 1.1.201.524 1.203.8 2.09.578.536-.135.66-.328.657-1.021-.005-.965-.211-1.376-.79-1.57-.64-.216-1.43.188-1.787.913zm-57.28-1.213c.181.073.33.242.33.375 0 .376-.9.287-1.47-.145-.496-.375-.49-.388.147-.376.364.007.81.072.992.146zm230.022.547-.892.11.139 1.231c.124 1.105.1 1.18-.232.724-.398-.544-.47-1.167-.21-1.84.11-.288.46-.405 1.124-.376l.963.042zm-198.405.51c-.182.074-.48.074-.661 0-.182-.073-.034-.133.33-.133s.513.06.331.134zm190.103.646c.838.311.74.413-.28.294-.916-.107-1.35.205-1.579 1.135-.103.42-.136.385-.16-.166-.046-1.038.95-1.661 2.02-1.263zm-140.493.037c-.158.473-1.948 1.093-2.504.866-.36-.146-.125-.31.982-.686 1.754-.594 1.657-.583 1.522-.18zm71.834.112c-.182.073-.48.073-.662 0-.182-.074-.033-.134.331-.134s.513.06.33.134zm-108.719.308c.241.266.427.772.414 1.125-.02.555-.056.528-.266-.198-.161-.555-.489-.928-.969-1.104-.606-.221-.634-.268-.171-.286.305-.011.751.197.992.463zm160.511.046c0 .145-.112.264-.249.264s-.323-.119-.412-.264c-.09-.146.022-.265.248-.265.227 0 .413.119.413.265zm-90.884-.074a3.006 3.006 0 0 0-.926.433c-.346.263-.35.242-.034-.161.2-.255.616-.45.926-.432.535.029.536.037.034.16zm71.106.442c.692.525.56.765-.16.293-.853-.558-1.401-.276-1.709.88-.21.79-.264.847-.286.303-.034-.836.65-1.847 1.244-1.836.247.005.657.167.911.36zm-110.794-.104c.09.146-.015.265-.233.265-.219 0-.47-.12-.56-.265-.09-.145.014-.264.233-.264.218 0 .47.119.56.264zm20.026.18c-.191.077-.42.068-.507-.02-.088-.088.068-.15.347-.139.308.013.37.075.16.16zm82.765.35c0 .145-.179.264-.397.264-.218 0-.397-.12-.397-.265 0-.145.179-.264.397-.264.218 0 .397.119.397.264zm44.582 1.047c.628.152.701.233.35.387-.611.268-1.608.09-1.74-.31-.118-.358.16-.373 1.39-.077zm-147.414.495c.833.92.282 2.426-.888 2.426-.882 0-.827-.492.064-.578 1.037-.1 1.298-.92.518-1.626-.593-.537-1.196-.372-1.586.434-.154.319-.288.43-.298.249-.023-.432.94-1.39 1.396-1.39.196 0 .553.218.794.485zm-29.99-.22c0 .335-.54.335-1.057 0-.31-.2-.237-.257.33-.26.4-.002.728.115.728.26zm25.715.446c-.19.076-.42.067-.507-.021-.088-.088.068-.15.347-.14.308.013.371.076.16.16zm-45.972.329c.867.958-.123 2.156-1.438 1.739-.841-.267-.614-.662.381-.662 1.109 0 1.356-.312.71-.897-.475-.429-1.356-.343-1.356.132 0 .13-.148.232-.33.227-.423-.01.808-1.05 1.245-1.05.18 0 .534.23.788.511zm-7.126-.246c-.09.146-.343.265-.56.265-.22 0-.324-.12-.234-.265.09-.145.342-.264.56-.264.218 0 .323.119.234.264zm13.874.662c-.001.503-.706 1.19-1.204 1.174-.44-.015-.432-.044.073-.248.315-.127.698-.447.852-.71.153-.265.279-.362.279-.216zm51.01.316c-.258.067-.615.062-.794-.01-.18-.073.031-.128.468-.122.436.005.583.064.326.131zm-5.618.874c-.09.146-.216.265-.28.265-.064 0-.117-.119-.117-.265 0-.145.126-.264.28-.264.155 0 .207.119.117.264zm19.513.705c-.182.073-.48.073-.661 0-.182-.074-.033-.134.33-.134.364 0 .513.06.331.134zm69.887.57c.073.12-.217.166-.646.103-.429-.063-.78-.16-.78-.217 0-.202 1.295-.098 1.426.115zm-10.82.575c.092.15-.014.194-.25.104-.458-.176-.542-.366-.161-.366.137 0 .322.118.41.262zm-54.442.186c-.257.067-.614.063-.793-.01-.18-.073.031-.127.468-.122.436.005.583.065.325.132zm-4.123.148c-.133.133-.524.198-.868.144-.53-.083-.493-.12.242-.242.526-.087.773-.049.626.098zm68.885.32c.437.2.608.374.381.385-.226.012-.643-.153-.926-.367-.637-.482-.48-.487.545-.018zm-143.805.06c.002.32-.123.659-.278.755-.433.267-.457.053-.074-.673.334-.634.348-.637.352-.081zm-6.677 1.126c.978.815.658 2.396-.483 2.396-.499 0-1.202-.718-.95-.97.09-.09.33-.026.534.143.484.402 1.23.103 1.23-.494 0-.562-1.213-1.424-1.636-1.163-.182.113-.224.065-.109-.121.268-.433.726-.366 1.414.209zm130.621.307c-.177.286-1.173.319-1.173.038 0-.109.297-.215.66-.236.362-.021.593.068.513.198zm-102.724.153c-.19.076-.419.067-.507-.02-.088-.089.069-.151.348-.14.308.013.37.076.16.16zm-31.22 0c-.191.076-.42.067-.508-.02-.087-.089.069-.151.348-.14.308.013.37.076.16.16zm70.737.366c.271.44.028.5-.352.088-.188-.204-.225-.37-.082-.37.143 0 .338.127.434.282zm-53.913.13c.742.52.773 1.689.068 2.535-.642.77-.676.535-.098-.677.361-.757.38-.995.1-1.331-.485-.585-1.236-.507-1.715.178-.3.429-.412.476-.412.173 0-.442.8-1.29 1.218-1.29.139 0 .516.185.84.412zm202.184.894c.278.177.144.263-.508.327-.741.072-.94.238-1.219 1.013-.312.868-.334.882-.353.217-.013-.466.219-.896.677-1.256.786-.618.872-.636 1.403-.3zm-148.811.546c.207.335-.143.335-.662 0-.342-.221-.335-.257.05-.26.247-.003.522.114.612.26zm-9.514.547c.096.155.117.339.048.408-.07.07-.197-.058-.283-.282-.179-.466-.026-.548.235-.126zm-61.262-.018a.265.265 0 0 1-.53 0 .265.265 0 0 1 .53 0zm16.29.378c.28.205.442.44.359.524-.083.083-.38-.017-.66-.222-.281-.204-.442-.44-.36-.523.084-.083.381.016.662.221zm6.514.332c-.191.076-.42.067-.508-.02-.087-.089.069-.151.348-.14.308.013.37.076.16.16zm196.8.745c-.356.43-1.323.547-1.323.16 0-.269.642-.557 1.245-.557.332 0 .347.074.078.397zm-85.46-.132c-.522.337-1.135.337-.926 0 .09-.146.424-.263.743-.26.471.002.505.051.183.26zm-73.158 0c-.09.146-.335.265-.545.265-.21 0-.38-.12-.38-.265 0-.146.244-.265.544-.265.3 0 .471.12.381.265zm-48.941.693c-.236.236-.509.348-.607.25-.098-.098-.003-.289.211-.424.625-.395.861-.292.396.174zm71.597.3c.315.402.311.424-.034.167a3.872 3.872 0 0 0-.794-.442c-.332-.123-.326-.15.034-.168.237-.011.594.188.794.442zm-79.078 1.034c-.182.074-.48.074-.662 0-.181-.073-.033-.133.331-.133s.513.06.33.133zm79.044.354c0 .146-.298.265-.661.265-.364 0-.662-.12-.662-.265 0-.145.298-.264.662-.264.363 0 .661.119.661.264zm-81.971.181c-.191.076-.42.067-.507-.02-.088-.089.068-.151.347-.14.308.013.371.076.16.16zm31.303.348c-.09.146-.328.265-.529.265-.2 0-.439-.119-.529-.265-.093-.15.135-.264.53-.264.394 0 .622.114.528.264zm-30.599.133c.053.878-.348 1.298-.92.965-.466-.27-.461-.288.082-.296.384-.005.615-.206.691-.603.1-.514.12-.523.147-.066zm34.07.753c.664.571.71.712.435 1.318-.46 1.01-1.478 1.582-2.44 1.37-.95-.208-1.075-.663-.182-.663 1.12 0 2.288-.549 2.288-1.075 0-.51-.724-1.042-1.417-1.042-.217 0-.78.324-1.25.72-.47.396-.8.552-.731.347.152-.455 1.209-1.229 1.983-1.451.39-.112.805.038 1.314.476zm-11.926-.074c.096.155.117.339.048.408-.07.07-.197-.058-.283-.282-.179-.466-.026-.548.235-.126zm38.577.73c.24.267.428.713.417.993-.016.383-.085.333-.281-.203-.144-.392-.58-.828-.972-.971-.602-.22-.626-.264-.156-.281.305-.012.751.196.992.463zm92.547.509c.335.428.323.434-.166.075a43.592 43.592 0 0 0-.64-.463c-.06-.041.014-.075.166-.075s.44.208.64.463zm-131.4-.199c-.09.146-.282.265-.428.265-.145 0-.19-.119-.101-.265.09-.145.283-.264.428-.264.146 0 .191.119.101.264zm46.17.265c0 .146-.186.265-.413.265-.226 0-.338-.12-.248-.265.09-.145.275-.265.412-.265.137 0 .249.12.249.265zm61.185.44c-.182.073-.48.073-.662 0-.181-.074-.033-.134.331-.134s.513.06.33.134zm-114.486.503c.772.347.768.35-.34.2-.794-.107-1.31-.026-1.777.28-.541.355-.631.362-.509.043.132-.345.761-.675 1.568-.823.153-.028.63.107 1.058.3zm114.155 1.174c.353.228.353.256 0 .256-.218 0-.575-.115-.794-.256-.352-.228-.352-.257 0-.257.219 0 .576.116.794.257zm86.783.222c.533.12.432.178-.522.294-.92.113-1.26.294-1.518.807-.243.483-.334.537-.337.198-.005-.55.915-1.536 1.385-1.485.182.02.629.103.992.186zm-200.818.44c-.618.657-2.117.938-2.117.396 0-.145.268-.268.595-.273.328-.005.827-.183 1.11-.397.823-.623 1.089-.447.412.273zm8.678-.08c.68.68-.04 2.064-1.077 2.064-.756 0-.756-.49.001-.578.582-.067.732-.22.732-.745 0-.572-.108-.654-.794-.604-.591.043-.692-.007-.397-.194.544-.346 1.155-.323 1.535.057zm-14.542.355c.443.973.359 1.18-.12.296-.225-.413-.358-.8-.298-.86.06-.061.249.193.418.564zm32.636.302c-.19.076-.419.067-.507-.021-.088-.088.068-.15.347-.14.309.014.371.076.16.16zm-5.82.529c-.192.076-.42.067-.508-.02-.088-.089.069-.151.348-.14.308.013.37.075.16.16zm42.548 1.175.926.812-.958-.555c-.526-.305-1.18-.556-1.455-.558-.418-.003-.434-.046-.1-.261.545-.352.544-.353 1.587.562zm-82.685-.558c-.092.148-.277.2-.413.117-.367-.227-.298-.386.166-.386.227 0 .338.121.247.27zm172.326 1.07c1.36.292 1.233.415-.416.4-.834-.009-1.754.09-2.045.22-.397.177-.459.159-.247-.072.447-.488 1.755-.752 2.708-.548zm-83.575.946c.302.383.548.83.547.992 0 .162-.244-.104-.542-.593-.454-.744-.666-.87-1.308-.775-.422.062-.706.015-.633-.104.29-.468 1.408-.19 1.936.48zm110.763.214c-.283.227-.63.412-.772.412-.336 0-.186-.122.624-.508.624-.297.632-.292.148.096zm-117.002.478c-.068.11-.347.198-.621.198s-.553-.089-.62-.198c-.068-.11.211-.198.62-.198.409 0 .688.089.62.198zm115.796.298c0 .055-.209.264-.463.463-.42.33-.43.32-.1-.1.345-.44.563-.58.563-.363zm-26.062 1.488c.21.339-.93.339-1.455 0-.302-.195-.195-.258.447-.26.465-.003.918.114 1.008.26zm-12.322 1.226c.301.384.538 1.009.525 1.39l-.022.691-.224-.744c-.325-1.083-.761-1.505-1.556-1.505-1.054 0-1.827.683-2.181 1.928-.198.694-.358.94-.425.65-.189-.825.445-2.189 1.233-2.654 1.109-.655 2.008-.572 2.65.244zm-86.215 1.602.641.71-.769-.583c-.487-.37-.972-.527-1.323-.429-.442.123-.474.099-.157-.123.61-.427.912-.347 1.608.425zm-59.673.63c.096.154.118.338.049.407-.07.07-.197-.057-.283-.282-.18-.466-.027-.548.234-.126zm41.86.428a2.174 2.174 0 0 1-.926 0c-.255-.066-.047-.12.463-.12.509 0 .717.054.463.12zm-20.857.502c-.013.308-.076.37-.16.16-.076-.192-.067-.42.02-.508.089-.088.151.069.14.348zm37.988.11c.09.145-.022.264-.249.264-.226 0-.412-.119-.412-.264 0-.146.112-.265.249-.265s.322.12.412.265zm-59.399 0c0 .145-.112.264-.248.264-.137 0-.323-.119-.413-.264-.09-.146.022-.265.249-.265s.412.12.412.265zm26.141.582c.175.175.3.68.278 1.124-.038.772-.044.777-.148.1-.06-.39-.274-.847-.477-1.015-.535-.444-1.446-.065-1.483.616-.024.466-.054.486-.154.101-.259-.998 1.221-1.69 1.984-.926zm48.589.187c.082.132-.09.177-.381.101-.618-.161-.696-.341-.149-.341.21 0 .448.108.53.24zm-32.611.205c-.191.077-.42.067-.507-.02-.088-.088.068-.151.347-.14.308.013.37.076.16.16zm-30.752.399c.297.318.54.772.54 1.008 0 .483-.937 1.588-1.346 1.588-.424 0-1.565-1.258-1.565-1.726 0-1.406 1.395-1.918 2.371-.87zm-1.839.079c-.426.513-.138 1.629.458 1.771.86.206 1.392-.065 1.392-.71 0-1.17-1.192-1.854-1.85-1.061zm65.978.013c.091.237.155.629.143.872-.013.242-.128.09-.256-.34-.25-.835-.161-1.248.113-.532zm-1.708.541c-.012.309-.075.371-.16.16-.076-.19-.067-.419.021-.507.088-.088.15.068.14.347zm-14.795.39c0 .155-.12.207-.265.117-.146-.09-.265-.216-.265-.28 0-.064.12-.116.265-.116.145 0 .265.126.265.28zm-32.96.219c.08.13-.116.304-.436.387-.776.203-.91.02-.245-.336.301-.16.6-.183.68-.051zm33.203.979c-.012.308-.075.37-.16.16-.076-.191-.067-.42.021-.507.088-.088.15.068.14.347zm10.47.372c.091.147-.009.196-.228.112-.214-.083-.667-.002-1.006.178-.56.299-.583.289-.253-.112.401-.486 1.235-.586 1.487-.178zm.378.95c-.013.309-.075.372-.16.16-.076-.19-.067-.419.021-.507.088-.087.15.069.14.348zm-67.712-.154c.339.22.33.257-.066.26-.255.003-.463-.114-.463-.26 0-.322.03-.322.529 0zm17.97.948c-.012.309-.075.371-.16.16-.076-.19-.066-.419.022-.507.087-.088.15.069.139.347zm48.834.38c-.091.148-.277.2-.412.116-.367-.226-.299-.385.166-.385.227 0 .338.12.246.269zm-41.2.173c.513.206 2.178 2.487 2.169 2.97-.006.283-.203.16-.593-.37-.922-1.253-1.721-1.984-2.17-1.984-.227 0-.947.557-1.6 1.238-1.341 1.4-1.537 1.322-.458-.184.61-.85 1.89-1.903 2.224-1.827.05.012.243.082.428.157zm-47.187.238c.229.229.398.735.376 1.125l-.04.708-.11-.727c-.117-.775-.946-1.404-1.444-1.096-.184.114-.227.067-.111-.12.264-.428.839-.38 1.33.11zm91.697 2.495c.484.312.066.312-.661 0-.35-.15-.394-.233-.132-.242.218-.008.575.1.793.242zm-67.376.653c.082.213.035.458-.104.545-.14.086-.253-.09-.253-.389 0-.639.147-.703.357-.156zm178.043.955c-.093.358-.213.478-.28.28-.063-.19.01-.473.165-.627.196-.196.23-.093.115.347zm18.748.162c.287.354.29.404.012.236-.193-.116-.67-.307-1.058-.424l-.707-.214.695-.023c.382-.012.859.18 1.058.425zm-197.413-.183c.34.22.33.257-.066.26-.254.003-.463-.114-.463-.26 0-.322.03-.322.53 0zm67.734.545c0 .154-.12.207-.265.117-.145-.09-.264-.216-.264-.28 0-.065.119-.117.264-.117.146 0 .265.126.265.28zm127.031.72c.087.526.048.773-.098.626-.134-.133-.198-.524-.144-.868.083-.53.12-.492.242.242zm-137.88.603c0 .154-.118.206-.264.117-.145-.09-.264-.216-.264-.28 0-.065.119-.117.264-.117.146 0 .265.126.265.28zm-50.27.942c0 .388-1.026 1.425-1.4 1.415-.176-.005-.082-.186.21-.403.29-.216.677-.592.86-.835.181-.243.33-.323.33-.177zm62.907 2.214c.18.289.327.676.324.86-.002.183-.156.036-.342-.328-.235-.457-.555-.658-1.035-.652-.383.005-.638-.085-.568-.199.25-.405 1.298-.199 1.621.319zm-1.81.687c-.012.308-.075.37-.159.16-.076-.191-.067-.42.02-.508.089-.087.151.069.14.348zm-90.05 2.34c.089.353.024.86-.144 1.124-.265.42-.286.391-.159-.215.156-.74-.151-1.142-1.039-1.36-.35-.086-.238-.14.326-.16.697-.026.885.087 1.016.61zm179.063.614c.067.11-.748.199-1.812.199-1.063 0-1.796-.088-1.628-.195.403-.256 3.282-.259 3.44-.004zm-158.29.885c.497.265.785.483.64.484-.146 0-.551-.157-.9-.35-.35-.194-.856-.295-1.125-.225-.27.07-.49.068-.49-.004 0-.381 1.083-.326 1.875.096zm-21.586.24c-.09.145-.282.264-.428.264-.145 0-.19-.119-.1-.264.09-.146.282-.265.427-.265.146 0 .191.12.101.265zm45.175.451c-.33.064-.806.061-1.058-.005-.253-.066.016-.118.598-.115.582.003.789.057.46.12zm112.776 1.663c.38.133.175.224-.738.327-.694.078-1.5.358-1.792.621-.443.401-.503.41-.366.052.257-.668 2.066-1.293 2.896-1zm-60.947 1.5c.33.402.307.412-.263.108-.344-.184-.963-.284-1.375-.224-.412.06-.689.013-.615-.107.242-.392 1.879-.23 2.253.224zm-23 1.242c.395.3.341.34-.44.322-.678-.014-.824-.097-.615-.35.338-.408.486-.404 1.055.028zm1.002 1.295c-.003.482-.053.52-.26.199-.332-.513-.332-.794 0-.794.145 0 .262.268.26.595zm54.111.64c.47.376.474.405.042.255-1.308-.453-1.79-.444-2.929.06-1.49.659-1.6.51-.166-.222 1.252-.639 2.331-.672 3.053-.093zm-13.047 1.327c-.191.076-.42.067-.507-.02-.088-.089.068-.151.347-.14.308.013.37.076.16.16zm-46.517 2.941c.072.117-.276.212-.774.212-.54 0-.773-.084-.578-.208.426-.27 1.186-.273 1.352-.004zm-22.913.994c.488.342.583.646.557 1.786l-.03 1.374-.218-1.297c-.218-1.302-.549-1.734-1.333-1.741-.558-.005-1.22.76-1.37 1.583l-.12.662-.036-.692c-.043-.822.873-2.087 1.511-2.087.248 0 .716.186 1.04.412zm24.877 6.256c.378.378.413 1.768.059 2.328-.177.28-.235.043-.195-.794.055-1.153.031-1.193-.768-1.27-.652-.064-.97.092-1.521.748-.383.455-.697.714-.697.574s.38-.625.844-1.078c.88-.86 1.736-1.05 2.278-.508zm113.86 7.633.625.542-.846-.41c-1.085-.525-1.656-.517-2.468.035l-.654.445.504-.577c.65-.744 2.004-.76 2.84-.035zm-42.176 2.552c-.257.067-.615.062-.794-.01-.179-.073.032-.128.468-.122.437.005.583.064.326.131z" style="fill:#262626;stroke-width:1;fill-opacity:1;filter:url(#a)" transform="translate(-232.15 -63.641)"/></svg>